<svg width="140" height="140" viewBox="0 0 140 140" fill="none" xmlns="http://www.w3.org/2000/svg">
<circle cx="70" cy="70" r="70" fill="#003399"/>
<g clip-path="url(#clip0_884_1703)">
<path d="M85.4375 40.9375C85.4375 43.3115 84.9229 45.5693 83.9766 47.6113L92.7422 62.752C88.8076 66.9522 83.7441 70.0732 78.0498 71.6504L69.5 56.875L58.2109 76.3818C61.7803 77.5107 65.5654 78.125 69.5166 78.125C81.2539 78.125 91.7295 72.6963 98.5527 64.1797C100.396 61.8887 103.732 61.5234 106.023 63.3496C108.314 65.1758 108.68 68.5293 106.854 70.8203C98.0713 81.7441 84.6074 88.75 69.5 88.75C63.623 88.75 57.9785 87.6875 52.7822 85.7451L43.3857 101.981C42.6055 103.326 41.4434 104.422 40.0488 105.119L30.8516 109.718C30.0215 110.133 29.042 110.083 28.2617 109.602C27.4814 109.12 27 108.257 27 107.344V98.1465C27 96.752 27.3652 95.374 28.0791 94.1455L38.04 76.9297C35.915 75.0703 33.9395 73.0283 32.1797 70.8203C30.3369 68.5293 30.7188 65.1924 33.0098 63.3496C35.3008 61.5068 38.6377 61.8887 40.4805 64.1797C41.4268 65.3584 42.4395 66.4707 43.502 67.5166L55.0234 47.6113C54.0938 45.5859 53.5625 43.3281 53.5625 40.9375C53.5625 32.1387 60.7012 25 69.5 25C78.2988 25 85.4375 32.1387 85.4375 40.9375ZM88.9238 90.3936C94.3359 88.2686 99.2998 85.2803 103.683 81.6113L110.938 94.1455C111.635 95.3574 112.017 96.7354 112.017 98.1465V107.344C112.017 108.257 111.535 109.12 110.755 109.602C109.975 110.083 108.995 110.133 108.165 109.718L98.9678 105.119C97.5732 104.422 96.4111 103.326 95.6309 101.981L88.9238 90.3936ZM69.5 46.25C72.4385 46.25 74.8125 43.876 74.8125 40.9375C74.8125 37.999 72.4385 35.625 69.5 35.625C66.5615 35.625 64.1875 37.999 64.1875 40.9375C64.1875 43.876 66.5615 46.25 69.5 46.25Z" fill="white"/>
</g>
<defs>
<clipPath id="clip0_884_1703">
<rect width="85" height="85" fill="white" transform="translate(27 25)"/>
</clipPath>
</defs>
</svg>
