<svg width="140" height="140" viewBox="0 0 140 140" fill="none" xmlns="http://www.w3.org/2000/svg">
<circle cx="70" cy="70" r="70" fill="#003399"/>
<path d="M109.453 96.8906H40.9219V34.7344C40.9219 34.2961 40.5633 33.9375 40.125 33.9375H34.5469C34.1086 33.9375 33.75 34.2961 33.75 34.7344V103.266C33.75 103.704 34.1086 104.062 34.5469 104.062H109.453C109.891 104.062 110.25 103.704 110.25 103.266V97.6875C110.25 97.2492 109.891 96.8906 109.453 96.8906ZM49.6875 88.9219H55.2656C55.7039 88.9219 56.0625 88.5633 56.0625 88.125V73.7812C56.0625 73.343 55.7039 72.9844 55.2656 72.9844H49.6875C49.2492 72.9844 48.8906 73.343 48.8906 73.7812V88.125C48.8906 88.5633 49.2492 88.9219 49.6875 88.9219ZM64.8281 88.9219H70.4062C70.8445 88.9219 71.2031 88.5633 71.2031 88.125V56.25C71.2031 55.8117 70.8445 55.4531 70.4062 55.4531H64.8281C64.3898 55.4531 64.0312 55.8117 64.0312 56.25V88.125C64.0312 88.5633 64.3898 88.9219 64.8281 88.9219ZM79.9688 88.9219H85.5469C85.9852 88.9219 86.3438 88.5633 86.3438 88.125V64.0195C86.3438 63.5812 85.9852 63.2227 85.5469 63.2227H79.9688C79.5305 63.2227 79.1719 63.5812 79.1719 64.0195V88.125C79.1719 88.5633 79.5305 88.9219 79.9688 88.9219ZM95.1094 88.9219H100.688C101.126 88.9219 101.484 88.5633 101.484 88.125V48.2812C101.484 47.843 101.126 47.4844 100.688 47.4844H95.1094C94.6711 47.4844 94.3125 47.843 94.3125 48.2812V88.125C94.3125 88.5633 94.6711 88.9219 95.1094 88.9219Z" fill="white"/>
</svg>
