<svg width="140" height="140" viewBox="0 0 140 140" fill="none" xmlns="http://www.w3.org/2000/svg">
<circle cx="70" cy="70" r="70" fill="#003399"/>
<g clip-path="url(#clip0_884_1990)">
<path d="M51.2914 67.7411C45.517 69.4352 41.6432 74.42 42.0327 79.7534C43.8674 77.6914 46.6693 75.9114 50.0635 74.741L51.2914 67.7411ZM33.4193 75.8223L28.3128 46.722C28.2661 46.4594 28.3578 46.2973 28.3514 46.2924C37.6471 41.0952 48.166 38.3474 58.7702 38.3474C59.0293 38.3474 59.29 38.375 59.5507 38.3782C61.7958 36.1946 64.6573 34.6773 67.8535 34.1634C70.8936 33.6738 73.9772 33.4258 77.0559 33.301C75.4482 31.0396 73.1162 29.3731 70.3336 28.924C66.4855 28.3064 62.6182 28 58.7686 28C46.4311 28 34.2578 31.1482 23.343 37.25C19.4532 39.4255 17.369 43.9645 18.1689 48.5198L23.2754 77.6201C25.5656 90.6731 45.216 100.653 56.1791 100.653C56.7569 100.653 57.2654 100.578 57.7901 100.523C55.6142 97.754 53.1326 93.9607 51.4331 89.5675C43.7708 87.4633 34.364 81.1994 33.4193 75.8223ZM49.1188 53.5387C49.0013 52.8708 48.7599 52.2629 48.4638 51.6907C47.136 53.1351 45.1372 54.2439 42.7794 54.6605C40.4217 55.0788 38.1654 54.7254 36.4256 53.8224C36.3419 54.4611 36.3226 55.116 36.4401 55.7839C37.0581 59.3017 40.396 61.6507 43.898 61.0314C47.3983 60.4121 49.7368 57.0565 49.1188 53.5387ZM115.657 47.599C101.337 39.5941 84.8485 36.6712 68.6662 39.2747C64.271 39.9815 60.7674 43.5317 59.9692 48.087L54.8626 77.1872C52.3858 91.2989 70.1968 109.004 80.3406 110.801C90.4845 112.598 113.248 102.081 115.724 87.9691L120.831 58.8689C121.631 54.312 119.547 49.7729 115.657 47.599ZM71.6822 63.2912C72.3002 59.7734 75.6381 57.4245 79.1401 58.0454C82.6421 58.6662 84.9789 62.0203 84.3625 65.538C84.245 66.2059 84.0036 66.8139 83.7075 67.3861C82.3797 65.9417 80.3809 64.8329 78.0231 64.4162C75.6654 63.998 73.4091 64.3514 71.6693 65.2544C71.584 64.614 71.5647 63.9591 71.6822 63.2912ZM83.0235 95.5121C74.0625 93.925 67.9726 85.9038 68.6936 77.2099C72.0089 81.3502 77.7399 84.6945 84.7053 85.9282C91.6707 87.1618 98.195 85.9881 102.719 83.2371C100.437 91.6571 91.9829 97.0991 83.0235 95.5121ZM103.994 70.9784C102.666 69.534 100.665 68.4252 98.3077 68.0086C95.95 67.5904 93.6936 67.9437 91.9539 68.8467C91.8702 68.208 91.8509 67.5531 91.9684 66.8852C92.5864 63.3674 95.9242 61.0184 99.4262 61.6377C102.927 62.2586 105.265 65.6126 104.649 69.1304C104.531 69.7999 104.29 70.4078 103.994 70.9784Z" fill="white"/>
</g>
<defs>
<clipPath id="clip0_884_1990">
<rect width="103" height="83" fill="white" transform="translate(18 28)"/>
</clipPath>
</defs>
</svg>
