<svg width="140" height="140" viewBox="0 0 140 140" fill="none" xmlns="http://www.w3.org/2000/svg">
<circle cx="70" cy="70" r="70" fill="#003399"/>
<g clip-path="url(#clip0_884_1968)">
<path d="M52.8748 84.25C52.52 84.25 52.1652 84.302 51.8268 84.4118C49.903 85.0367 47.8798 85.4375 45.7498 85.4375C43.6197 85.4375 41.5965 85.0367 39.6712 84.4118C39.3328 84.302 38.9795 84.25 38.6248 84.25C29.4127 84.25 21.9508 91.7431 21.9998 100.967C22.0205 104.865 25.2253 108 29.1248 108H62.3748C66.2742 108 69.479 104.865 69.4998 100.967C69.5487 91.7431 62.0868 84.25 52.8748 84.25ZM45.7498 79.5C53.6199 79.5 59.9998 73.1202 59.9998 65.25C59.9998 57.3798 53.6199 51 45.7498 51C37.8796 51 31.4998 57.3798 31.4998 65.25C31.4998 73.1202 37.8796 79.5 45.7498 79.5ZM109.875 32H52.8748C48.9456 32 45.7498 35.3027 45.7498 39.361V46.25C49.2262 46.25 52.4443 47.2564 55.2498 48.8922V41.5H107.5V84.25H97.9997V74.75H78.9998V84.25H67.6829C70.518 86.7274 72.5991 89.999 73.5744 93.75H109.875C113.804 93.75 117 90.4473 117 86.389V39.361C117 35.3027 113.804 32 109.875 32Z" fill="white"/>
</g>
<defs>
<clipPath id="clip0_884_1968">
<rect width="95" height="76" fill="white" transform="translate(22 32)"/>
</clipPath>
</defs>
</svg>
