<svg width="140" height="140" viewBox="0 0 140 140" fill="none" xmlns="http://www.w3.org/2000/svg">
<circle cx="70" cy="70" r="70" fill="#003399"/>
<g clip-path="url(#clip0_884_1740)">
<path d="M44.5063 86.9374L47.2381 77.9745H58.8864L61.6183 86.9374H68.9478L57.2996 52.0682H49.2318L37.5312 86.9374H44.5063ZM53.2424 58.7351L57.5088 72.8363H48.668L52.9344 58.7351H53.2424ZM80.9041 59.4791C74.7487 59.4791 70.7148 63.9257 70.7148 71.3541V75.3938C70.7148 82.8279 74.6964 87.2687 80.8286 87.2687C84.7636 87.2687 87.9314 85.3506 88.7743 82.5955H89.1056V86.9374H95.7202V50.2314H88.9777V63.9489H88.6696C87.6234 61.188 84.7171 59.4733 80.9041 59.4733V59.4791ZM83.1536 64.8441C86.5248 64.8441 88.9777 67.4016 88.9777 71.4587V74.9578C88.9777 79.3753 86.6759 81.9328 83.2582 81.9328C79.7823 81.9328 77.6084 79.323 77.6084 74.6788V72.0458C77.6084 67.4248 79.7591 64.8383 83.1536 64.8383V64.8441Z" fill="white"/>
<path d="M104.375 40.4375C105.917 40.4375 107.395 41.0499 108.485 42.1399C109.575 43.23 110.188 44.7084 110.188 46.25V92.75C110.188 94.2916 109.575 95.77 108.485 96.8601C107.395 97.9501 105.917 98.5625 104.375 98.5625H34.625C33.0834 98.5625 31.605 97.9501 30.5149 96.8601C29.4249 95.77 28.8125 94.2916 28.8125 92.75V46.25C28.8125 44.7084 29.4249 43.23 30.5149 42.1399C31.605 41.0499 33.0834 40.4375 34.625 40.4375H104.375ZM34.625 34.625C31.5419 34.625 28.585 35.8498 26.4049 38.0299C24.2248 40.21 23 43.1669 23 46.25L23 92.75C23 95.8331 24.2248 98.79 26.4049 100.97C28.585 103.15 31.5419 104.375 34.625 104.375H104.375C107.458 104.375 110.415 103.15 112.595 100.97C114.775 98.79 116 95.8331 116 92.75V46.25C116 43.1669 114.775 40.21 112.595 38.0299C110.415 35.8498 107.458 34.625 104.375 34.625H34.625Z" fill="white"/>
</g>
<defs>
<clipPath id="clip0_884_1740">
<rect width="93" height="93" fill="white" transform="translate(23 23)"/>
</clipPath>
</defs>
</svg>
