<svg width="140" height="140" viewBox="0 0 140 140" fill="none" xmlns="http://www.w3.org/2000/svg">
<circle cx="70" cy="70" r="70" fill="#003399"/>
<path d="M86.8738 39.875C86.8738 30.5551 79.3189 23 69.9991 23C60.6794 23 53.1244 30.5551 53.1244 39.875C53.1244 49.1949 60.6794 56.7499 69.9991 56.7499C79.3189 56.7499 86.8738 49.1949 86.8738 39.875ZM66.0599 65.3807C55.631 58.9964 38.7388 57.2421 30.2382 56.7587C27.3818 56.597 25 58.7731 25 61.5206V100.685C25 103.203 27.0373 105.304 29.6564 105.439C37.3308 105.842 52.8573 107.317 63.5885 112.722C65.2355 113.552 67.1884 112.421 67.1884 110.636V67.3952C67.1867 66.5743 66.7806 65.822 66.0599 65.3807ZM109.76 56.7587C101.261 57.2403 84.3672 58.9964 73.9401 65.3807C73.2194 65.822 72.8133 66.6042 72.8133 67.4251V110.63C72.8133 112.421 74.7715 113.553 76.4238 112.722C87.1533 107.322 102.671 105.847 110.344 105.445C112.963 105.308 115 103.207 115 100.688V61.5206C114.998 58.7731 112.616 56.597 109.76 56.7587Z" fill="white"/>
</svg>
