<svg width="140" height="140" viewBox="0 0 140 140" fill="none" xmlns="http://www.w3.org/2000/svg">
<circle cx="70" cy="70" r="70" fill="#003399"/>
<path d="M106 27.5H38C35.7457 27.5 33.5837 28.3955 31.9896 29.9896C30.3955 31.5837 29.5 33.7457 29.5 36V87C29.5 89.2543 30.3955 91.4163 31.9896 93.0104C33.5837 94.6045 35.7457 95.5 38 95.5H63.5V104H50.75V112.5H93.25V104H80.5V95.5H106C108.254 95.5 110.416 94.6045 112.01 93.0104C113.604 91.4163 114.5 89.2543 114.5 87V36C114.5 33.7457 113.604 31.5837 112.01 29.9896C110.416 28.3955 108.254 27.5 106 27.5ZM106 87H38V36H106V87ZM92.1875 74.25C92.1875 76.2225 91.4039 78.1143 90.0091 79.5091C88.6143 80.9039 86.7225 81.6875 84.75 81.6875C82.7775 81.6875 80.8857 80.9039 79.4909 79.5091C78.0961 78.1143 77.3125 76.2225 77.3125 74.25L63.5 67.28C62.4244 68.108 61.1384 68.6183 59.7876 68.7529C58.4369 68.8876 57.0755 68.6412 55.8576 68.0418C54.6397 67.4424 53.614 66.5138 52.8967 65.3614C52.1795 64.209 51.7993 62.8787 51.7993 61.5213C51.7993 60.1638 52.1795 58.8335 52.8967 57.6811C53.614 56.5287 54.6397 55.6001 55.8576 55.0007C57.0755 54.4013 58.4369 54.1549 59.7876 54.2896C61.1384 54.4242 62.4244 54.9345 63.5 55.7625L77.3125 48.75C77.2887 47.0447 77.8451 45.3819 78.8904 44.0343C79.9357 42.6868 81.4079 41.7344 83.0656 41.3334C84.7233 40.9324 86.468 41.1066 88.0136 41.8275C89.5593 42.5483 90.8142 43.7729 91.5724 45.3006C92.3307 46.8282 92.5473 48.5682 92.1868 50.2351C91.8263 51.9021 90.9101 53.397 89.5884 54.4748C88.2666 55.5527 86.6179 56.1494 84.9125 56.1671C83.2071 56.1849 81.5464 55.6226 80.2025 54.5725L66.5175 61.5L80.2025 68.3425C81.2994 67.4739 82.6203 66.9343 84.0116 66.7864C85.403 66.6385 86.8078 66.8883 88.0628 67.507C89.3178 68.1256 90.3716 69.0875 91.1017 70.2811C91.8318 71.4747 92.2083 72.851 92.1875 74.25Z" fill="white"/>
</svg>
