<svg width="134" height="134" viewBox="0 0 134 134" fill="none" xmlns="http://www.w3.org/2000/svg">
<circle cx="67" cy="67" r="67" fill="#003399"/>
<path d="M40.9561 36.5352C44.3605 34.6297 48.7018 34.1832 52.8518 35.2356C54.8729 35.7459 56.5991 37.0575 57.6356 38.8633L61.2155 45.1062C62.4914 47.3319 62.8599 49.9638 62.2443 52.4543C61.6288 54.9448 60.0765 57.102 57.9106 58.4769L54.7613 60.4782C53.4577 61.3034 52.9793 62.5671 53.2783 63.5677C54.3467 67.1476 56.7107 71.1181 59.3099 73.8369C60.0833 74.6502 61.5025 74.8415 62.8898 74.0323L64.6319 73.0157C65.775 72.3494 67.0393 71.9174 68.3511 71.7449C69.6629 71.5724 70.996 71.6628 72.2725 72.0108C73.549 72.3589 74.7434 72.9577 75.7861 73.7722C76.8287 74.5867 77.6988 75.6007 78.3454 76.755L81.5546 82.4757C82.603 84.3493 82.7744 86.5857 82.033 88.5989C80.554 92.5974 77.7036 95.8225 74.1995 97.437C70.6395 99.0754 66.4736 99.0077 62.7024 96.4922C56.7306 92.5137 49.535 85.8163 43.0171 74.6462C36.4154 63.3245 34.7531 53.6891 34.9404 46.5055C35.06 41.909 37.4918 38.4727 40.9561 36.5352V36.5352ZM77.6 35.0204C77.1379 34.7634 76.5928 34.7006 76.0844 34.8456C75.576 34.9907 75.1461 35.3317 74.8891 35.7937C74.6322 36.2558 74.5694 36.8009 74.7144 37.3093C74.8594 37.8177 75.2005 38.2476 75.6625 38.5046L77.1933 39.3577C81.9756 42.0143 86.0435 45.7893 89.0495 50.36C92.0555 54.9308 93.9101 60.1614 94.4549 65.6048L94.5825 66.8605C94.5975 67.1293 94.6668 67.3923 94.7863 67.6335C94.9057 67.8747 95.0728 68.0893 95.2774 68.2642C95.482 68.4391 95.72 68.5708 95.9769 68.6512C96.2337 68.7317 96.5043 68.7593 96.7721 68.7323C97.04 68.7054 97.2996 68.6245 97.5353 68.4945C97.771 68.3645 97.9779 68.188 98.1436 67.9759C98.3093 67.7637 98.4303 67.5202 98.4993 67.26C98.5683 66.9998 98.5838 66.7283 98.545 66.4619L98.4215 65.2101C97.8132 59.1251 95.7404 53.2779 92.3804 48.1683C89.0203 43.0588 84.4728 38.8389 79.1268 35.8695L77.6 35.0204V35.0204ZM72.9278 45.7042C73.2001 45.2512 73.6412 44.9249 74.154 44.7971C74.6668 44.6692 75.2095 44.7503 75.6625 45.0225L76.1569 45.3175C79.3748 47.2468 82.1353 49.8518 84.2477 52.9526C86.3601 56.0534 87.7739 59.5759 88.3914 63.2767L88.5668 64.3411C88.6185 64.6028 88.6171 64.8723 88.5627 65.1335C88.5084 65.3947 88.4021 65.6424 88.2502 65.8617C88.0984 66.0811 87.904 66.2678 87.6786 66.4106C87.4533 66.5535 87.2016 66.6497 86.9384 66.6935C86.6752 66.7372 86.4059 66.7277 86.1464 66.6655C85.887 66.6033 85.6427 66.4896 85.428 66.3312C85.2133 66.1728 85.0325 65.9729 84.8965 65.7433C84.7605 65.5138 84.672 65.2593 84.6361 64.9949L84.4568 63.9344C83.9356 60.8029 82.7407 57.8219 80.9546 55.1974C79.1685 52.5729 76.8337 50.3676 74.1118 48.7339L73.6175 48.4389C73.3928 48.3044 73.1969 48.127 73.0409 47.9167C72.8848 47.7065 72.7718 47.4676 72.7081 47.2136C72.6444 46.9596 72.6314 46.6956 72.6698 46.4366C72.7082 46.1776 72.7972 45.9288 72.9318 45.7042H72.9278Z" fill="white"/>
</svg>
