<svg width="100" height="107" viewBox="0 0 100 107" fill="none" xmlns="http://www.w3.org/2000/svg">
<path d="M19.75 0.0762483C7.49348 0.106754 0.0620923 0.152513 0.0268725 0.198273C-0.0506112 0.305044 0.0550483 60.5545 0.14662 67.609C0.259323 76.4558 0.428379 84.0823 0.569258 87.1482C0.618566 88.1701 0.646742 88.3455 0.808753 88.7116C1.94283 91.2207 7.97247 94.4162 15.263 96.3839C17.1578 96.9025 18.0806 97.0779 24.554 98.1914C33.6618 99.7624 38.1981 100.838 41.8187 102.31C44.3616 103.339 48.2569 105.49 49.6375 106.619C49.8911 106.832 50.1165 107 50.1377 107C50.1517 107 50.3983 106.817 50.68 106.596C52.2438 105.345 55.9489 103.309 58.5975 102.241C62.1054 100.83 66.5572 99.7472 74.7493 98.3058C82.7371 96.8949 83.5895 96.7271 85.8788 96.0559C90.7461 94.6374 95.0852 92.6316 97.614 90.6335C98.3184 90.0768 99.0651 89.2302 99.3327 88.6887C99.5581 88.2235 99.5652 88.193 99.6215 86.8736C99.9667 78.637 100.058 61.2485 99.9667 17.4495L99.9315 -1.68588e-05L69.6776 0.0152362C53.0398 0.0228627 30.5695 0.0457422 19.75 0.0762483ZM96.332 7.48922C96.5081 24.8853 96.5504 83.0451 96.3813 85.2797C96.3038 86.3855 96.0784 86.8965 95.2895 87.7507C92.4085 90.8775 83.9276 93.7756 68.938 96.75C65.7753 97.3753 64.9863 97.5507 63.4719 97.9626C59.0131 99.1752 54.4486 101.082 50.9125 103.21L50.1447 103.675L49.7855 103.461C46.5311 101.517 43.0796 99.9607 39.3533 98.7557C36.7612 97.9168 35.1904 97.5355 30.9006 96.7042C15.2771 93.6765 6.2467 90.4047 4.2603 87.0414C3.83766 86.3245 3.81653 86.1567 3.73904 83.3959C3.63338 79.3691 3.54181 43.9363 3.58408 22.6736L3.62634 3.12685L20.2924 3.1116C29.4566 3.09635 50.3067 3.0811 66.6205 3.06584L96.2827 3.05059L96.332 7.48922Z" fill="#003399"/>
<path d="M46.8197 10.8219C45.7984 11.0965 45.1996 12.2099 45.4391 13.4149C45.5307 13.8954 45.8195 14.5665 46.052 14.8716L46.2281 15.0928L46.066 15.1309C45.9745 15.1538 45.7279 15.1919 45.5166 15.2072C45.3053 15.23 44.3825 15.3216 43.4739 15.4207L41.8185 15.5961L41.7763 15.9012C41.7481 16.1147 41.727 16.1452 41.7199 16.0003C41.7199 15.8859 41.6917 15.7791 41.6565 15.7563C41.6283 15.741 41.0648 15.8402 40.4097 15.9851C39.7476 16.13 38.9728 16.2977 38.684 16.3511C35.3381 17.0146 30.6891 18.6315 26.4979 20.5915C25.6667 20.9804 24.9764 21.3084 24.9623 21.316C24.9341 21.3389 25.1666 21.9871 25.23 22.0634C25.2511 22.0939 25.5047 22.01 25.7794 21.8804C26.0612 21.7431 26.3077 21.6516 26.3288 21.6744C26.35 21.6973 26.9698 23.276 27.7024 25.175C28.442 27.0816 29.083 28.7061 29.1323 28.79C29.2028 28.8968 29.4 28.9883 29.7733 29.0874C30.0692 29.1637 30.3228 29.2094 30.3298 29.2018C30.3439 29.1866 29.71 27.5087 28.921 25.4724C28.1321 23.4362 27.4348 21.6439 27.3784 21.4838L27.2727 21.194L27.7447 20.9575C28.8365 20.4237 32.8657 18.8374 32.9361 18.9213C32.9713 18.967 33.6123 21.3007 33.5912 21.316C33.5841 21.3236 32.7741 21.6516 31.7879 22.0481C30.7313 22.4676 29.9706 22.8184 29.9213 22.8947C29.7381 23.2226 30.6186 24.2064 31.5555 24.7174C31.9288 24.9233 32.0204 24.9462 32.1683 24.8776C32.2669 24.8318 32.3444 24.7403 32.3444 24.6793C32.3444 24.6183 32.2317 24.2293 32.0979 23.8251C31.964 23.4209 31.8584 23.0777 31.8654 23.0701C31.9288 23.0091 33.8448 22.2693 33.8659 22.2922C33.88 22.3074 34.1547 23.2455 34.4717 24.3819L35.0422 26.441L35.6339 26.6698C36.2186 26.8986 36.2327 26.9062 36.1904 26.7461C36.1693 26.6546 35.641 24.7784 35.0281 22.5744C34.2392 19.7602 33.9293 18.5552 33.9856 18.5171C34.1054 18.4408 35.6339 17.9832 35.9298 17.9451L36.1834 17.9069L36.5496 19.6534C36.7469 20.6067 37.1132 22.3303 37.3527 23.4819L37.7964 25.5716L38.3177 25.8309C38.6065 25.9758 38.8671 26.0749 38.8953 26.0673C38.9164 26.0521 38.5501 24.2064 38.0782 21.9642C37.5992 19.7221 37.2118 17.8231 37.2047 17.7544C37.2047 17.6629 37.2963 17.5943 37.5076 17.5332C37.9655 17.396 39.3743 17.0833 39.5152 17.0833C39.6208 17.0833 39.6772 17.2816 39.8744 18.395C40.0012 19.1196 40.1209 19.7678 40.135 19.8441C40.1632 19.9356 40.1068 19.9814 39.9378 20.0195C39.5152 20.111 39.4518 20.1491 39.3954 20.3093C39.3038 20.5838 39.4447 20.866 39.9026 21.3236C40.3111 21.7355 40.9099 22.1168 41.1564 22.1168C41.3889 22.1168 41.4593 21.9185 41.3677 21.4533C41.2339 20.7288 41.1775 20.7898 42.2764 20.5533C42.8188 20.4389 43.2837 20.3627 43.3048 20.3779C43.3259 20.4008 43.4034 21.2245 43.4809 22.2007C43.5584 23.1845 43.6359 24.0539 43.65 24.1378C43.6781 24.2675 44.6502 24.992 44.7066 24.9233C44.7206 24.9081 44.5727 23.0091 44.3825 20.7059C44.1923 18.395 44.0374 16.4579 44.0374 16.3816C44.0374 16.2825 44.1501 16.252 44.7066 16.2062C45.0728 16.1757 45.3969 16.1223 45.418 16.0842C45.4391 16.0461 45.6082 16.0156 45.7984 16.0156H46.1435L46.1787 16.3359C46.1999 16.5189 46.2774 18.09 46.3619 19.8288C46.4394 21.5677 46.5239 23.2074 46.545 23.459L46.5803 23.9319L47.0804 24.2903C47.348 24.481 47.5805 24.6335 47.5946 24.6183C47.6016 24.603 47.5241 22.8108 47.4114 20.6296C47.2987 18.4484 47.2142 16.5037 47.2072 16.2977V15.9393H47.5101C47.6721 15.9393 47.975 15.9164 48.1792 15.8935L48.5455 15.8402V15.5275C48.5455 15.0012 48.5244 14.9936 47.5664 15.0546L46.7211 15.108L46.545 14.8182C46.2985 14.4064 46.1224 13.6971 46.1787 13.2929C46.3055 12.2709 47.0029 11.7295 48.1933 11.7218C49.5317 11.7142 50.6658 12.454 51.7294 14.0022C52.2013 14.6962 52.1873 14.6886 52.6733 14.4826L52.8705 14.4064L52.307 13.7963C51.2152 12.5913 50.2572 11.7981 49.3204 11.3024C48.3835 10.8067 47.5171 10.6389 46.8197 10.8219ZM42.4454 16.4274L43.0301 16.374L43.1287 17.701C43.1851 18.4332 43.2273 19.0967 43.2273 19.1729C43.2273 19.3026 43.0935 19.3484 42.1778 19.539C41.4452 19.6915 41.1141 19.7373 41.0789 19.6763C41.0014 19.5466 40.5647 16.9307 40.607 16.8774C40.6351 16.8545 40.9169 16.7782 41.2339 16.7096C41.7833 16.5876 41.8185 16.5647 41.8044 16.3893C41.7974 16.2825 41.8044 16.2596 41.8256 16.3435C41.8608 16.4579 41.9312 16.4655 42.4454 16.4274Z" fill="#003399"/>
<path d="M69.22 13.8346C69.1778 13.9719 69.0439 14.91 69.0439 15.0396C69.0439 15.1388 69.1707 15.1769 69.7202 15.215C70.5725 15.2837 70.6641 15.3676 70.8402 16.1684C71.143 17.6021 71.298 18.5249 71.298 18.9215C71.298 19.3257 71.3614 19.4478 71.5516 19.4478C71.5657 19.4478 71.5798 19.2342 71.5798 18.9673C71.5727 17.7089 70.9669 14.5897 70.6711 14.3151C70.495 14.1473 69.2482 13.7355 69.22 13.8346Z" fill="#003399"/>
<path d="M48.6162 15.4435V15.8629H49.4122C50.6026 15.8629 50.5181 15.7943 50.5181 16.8544C50.5181 17.3425 50.497 17.9602 50.4758 18.2195L50.4265 18.6847H49.8771C49.384 18.6847 49.3136 18.7 49.2431 18.8449C48.9614 19.4169 49.8137 21.1328 51.5676 23.5504C52.2579 24.4961 52.3706 24.6258 52.4904 24.5571C52.7158 24.4275 52.7088 24.3512 52.4693 24.1224C52.0959 23.764 51.3634 22.803 50.6308 21.6972C50.2504 21.1252 49.9475 20.6524 49.9616 20.6447C49.9757 20.6295 50.1025 20.5685 50.2363 20.5075C50.5744 20.3397 51.1873 19.7296 51.2929 19.455L51.3774 19.2186L51.6733 19.4779C52.2157 19.9584 52.42 20.0575 52.8919 20.0575H53.3216L53.6386 20.538C53.9908 21.0718 54.4134 21.4303 54.6881 21.4303C54.8924 21.4303 54.9558 21.232 54.9558 20.5685V20.1872L56.0617 20.2405C56.6745 20.271 57.1746 20.3016 57.1817 20.3092C57.1887 20.3168 57.0619 21.2244 56.907 22.3302L56.6182 24.336L57.0338 24.7859C57.2592 25.0376 57.4634 25.2207 57.4846 25.1978C57.5057 25.1749 57.7945 23.2606 58.1256 20.9498L58.7243 16.74L58.9708 16.7476C59.1047 16.7476 59.4146 16.7781 59.6541 16.8086L60.0838 16.8696L60.1472 16.4654C60.1824 16.2366 60.1894 16.046 60.1683 16.0307C60.0345 15.9697 56.7449 15.4358 56.7097 15.474C56.6816 15.4968 56.6463 15.6951 56.6182 15.9087L56.5759 16.29L57.1183 16.3815C57.4141 16.4349 57.6748 16.4959 57.6959 16.5112C57.7241 16.5417 57.5268 18.1204 57.3719 19.0508L57.3366 19.3025L56.4068 19.2567C55.8997 19.2338 55.3784 19.1957 55.2446 19.1728L55.0121 19.1347L55.0544 18.0136C55.0826 17.3958 55.1178 16.7323 55.1389 16.5341L55.1812 16.168L55.794 16.2214L56.4139 16.2671L56.4561 15.8553C56.4843 15.6341 56.4843 15.4358 56.4632 15.413C56.4421 15.3901 55.7095 15.3291 54.829 15.2757C53.9485 15.2223 53.0257 15.146 52.7722 15.1079C52.5186 15.0621 51.4831 15.024 50.4688 15.024H48.6162V15.4435ZM52.913 16.0155C52.913 16.0612 53.1737 16.0917 53.547 16.0917H54.1809L54.1739 16.7934C54.1598 17.6018 54.0682 19.211 54.0542 18.8906C54.0471 18.7686 54.0189 18.6847 53.9908 18.7C53.2371 19.1194 52.906 19.2415 52.4552 19.272C52.0184 19.3025 51.9339 19.2872 51.7156 19.1271C51.4408 18.9212 51.4479 18.9593 51.5676 17.9373C51.6381 17.2891 51.631 16.9078 51.5324 16.1832L51.4972 15.9392H52.2086C52.6313 15.9392 52.913 15.9697 52.913 16.0155Z" fill="#003399"/>
<path d="M65.367 17.6555L65.2613 18.0749L67.452 18.8452C68.6565 19.2723 69.7765 19.6841 69.9314 19.7604C70.0935 19.8366 70.3752 19.9663 70.5654 20.0426C70.7556 20.1265 70.9176 20.2409 70.9317 20.3019C70.9528 20.4239 69.5088 24.6185 69.4102 24.7252C69.2975 24.8473 68.3395 25.0913 67.9873 25.0913C67.4027 25.0913 66.5222 24.7252 66.1488 24.321C65.9516 24.1075 65.9657 23.4592 66.177 23.0322C66.3672 22.6356 66.8884 22.2314 67.5858 21.9339L68.0648 21.728L68.7128 21.9644C69.0721 22.1017 69.3961 22.2237 69.4384 22.239C69.4947 22.2695 69.7131 21.362 69.6567 21.3086C69.5652 21.2399 65.0781 19.6689 65.05 19.707C65.0288 19.7299 65.0359 19.9587 65.0711 20.218L65.1345 20.6832L65.8037 20.912C66.501 21.156 66.5996 21.2018 66.4588 21.2552C66.2193 21.3467 65.7262 21.8653 65.5501 22.2161C65.367 22.5746 65.3458 22.6813 65.3458 23.2991C65.3458 23.9168 65.367 24.0236 65.5501 24.3897C66.1277 25.5108 67.4238 26.3116 68.5438 26.2277C68.741 26.2124 68.903 26.2124 68.903 26.2353C68.903 26.2582 68.8044 26.5861 68.6776 26.9598L68.4593 27.6462L68.7551 28.1648C68.9242 28.447 69.0791 28.6758 69.1143 28.6758C69.1425 28.6758 69.7765 26.9064 70.5231 24.7481C71.2698 22.5898 71.9108 20.79 71.939 20.7366C71.9742 20.6756 72.1432 20.7137 72.5659 20.8891C72.8829 21.0188 73.1646 21.1255 73.1998 21.1255C73.2562 21.1255 73.5168 20.3705 73.4746 20.3324C73.4605 20.3247 72.8476 20.0654 72.108 19.7528C71.3755 19.4477 70.7063 19.1503 70.6288 19.0969C70.5231 19.0282 66.9025 17.7165 65.6205 17.2818C65.4937 17.236 65.4656 17.2818 65.367 17.6555Z" fill="#003399"/>
<path d="M73.8684 20.8204C73.7628 21.0416 73.6923 21.2323 73.7064 21.2475C73.7276 21.2628 74.6996 21.8576 75.883 22.5745C77.0594 23.2914 78.0455 23.9015 78.0737 23.9321C78.13 24.0007 77.327 25.5946 77.2425 25.5718C77.2073 25.5641 76.5522 25.1752 75.7844 24.71C74.3686 23.8405 74.0798 23.7261 73.6008 23.8253C73.2838 23.8863 72.8259 24.2219 72.6076 24.5498C72.0934 25.2972 71.9666 27.4479 72.2695 30.0485C72.3188 30.4375 72.3329 30.468 72.4949 30.4451C72.5935 30.4298 72.678 30.407 72.6851 30.3993C72.6921 30.3917 72.6639 30.2468 72.6146 30.079C72.5653 29.896 72.5301 29.2325 72.5301 28.3326C72.5301 27.0437 72.5442 26.8225 72.6851 26.342C72.8752 25.7014 73.0795 25.3506 73.4106 25.1065C73.8473 24.7862 74.1713 24.8777 75.5801 25.7395C76.2423 26.1437 76.7917 26.5174 76.7917 26.5556C76.7917 26.6013 76.3197 27.5775 75.7351 28.7368C75.1575 29.896 74.6785 30.8646 74.6785 30.8951C74.6785 30.9179 74.7912 31.2154 74.9321 31.5433L75.1786 32.1382L75.5449 31.4213C75.7421 31.0247 76.6015 29.3011 77.4609 27.5928L79.0176 24.4964L79.5741 24.8244C79.8769 25.0074 80.1587 25.137 80.1869 25.1218C80.2996 25.0455 80.532 24.4583 80.4757 24.4049C80.4475 24.3668 79.0246 23.4973 77.32 22.4601C75.6153 21.4229 74.1854 20.5383 74.1361 20.5001C74.0727 20.4467 74.0023 20.5383 73.8684 20.8204Z" fill="#003399"/>
<path d="M21.3704 23.5352C19.6517 24.6792 18.2288 25.6325 18.2077 25.6554C18.1584 25.7012 18.5247 26.3876 18.5951 26.3799C18.6233 26.3799 19.6094 25.7317 20.7928 24.9461L22.9412 23.5124L23.3779 24.3208C23.6174 24.7631 23.7935 25.1521 23.7654 25.1826C23.7372 25.2054 23.0962 25.6402 22.3425 26.1435C20.7083 27.2265 20.5674 27.3866 20.5251 28.2179C20.504 28.645 20.5251 28.8128 20.6519 29.095C21.0464 29.972 22.3566 30.9558 24.6177 32.0617L25.1671 32.3286L25.2305 32.138C25.2728 32.0312 25.3009 31.932 25.3009 31.9168C25.3009 31.9092 25.1953 31.871 25.0615 31.8481C24.7797 31.7871 23.4836 31.0855 22.9905 30.727C22.4693 30.3381 21.8846 29.6975 21.6733 29.278C21.5113 28.9577 21.4831 28.8204 21.5113 28.4849C21.5324 28.2637 21.5958 27.9968 21.6522 27.8976C21.7508 27.7298 24.1528 26.0825 24.2866 26.0825C24.3218 26.0825 24.8572 27.0129 25.477 28.1493C26.0969 29.2856 26.6534 30.2389 26.7097 30.2771C26.7661 30.3076 27.0619 30.3533 27.3648 30.3839L27.9072 30.4372L27.6043 29.8805C27.4353 29.5754 26.5125 27.89 25.5545 26.1359C24.5895 24.3818 23.8147 22.9327 23.8288 22.9251C23.8428 22.9099 24.1035 22.7345 24.4064 22.5362L24.9558 22.1777L24.8008 21.9032C24.7163 21.743 24.6106 21.5829 24.5684 21.5371C24.512 21.4761 23.6315 22.0252 21.3704 23.5352Z" fill="#003399"/>
<path d="M80.4971 24.9235C80.3985 25.076 80.3139 25.2438 80.2999 25.2895C80.2858 25.3582 83.1949 27.5317 83.3076 27.5317C83.3217 27.5317 83.4344 27.3792 83.5542 27.1885L83.7725 26.853L82.6244 26.0217C81.9904 25.5641 81.2931 25.0684 81.0747 24.9158L80.6661 24.6337L80.4971 24.9235Z" fill="#003399"/>
<path d="M16.5587 27.1734C15.798 27.814 15.1851 28.3555 15.2063 28.386C15.2204 28.4165 15.1922 28.4318 15.1429 28.4089C15.0936 28.3936 14.8329 28.5919 14.5723 28.8512L14.0933 29.3317L14.4808 29.53L14.8611 29.7359L15.2485 29.3774C15.9459 28.7368 16.5658 28.264 16.6292 28.3402C16.9391 28.6987 18.5381 31.1468 18.4888 31.1926C17.0518 32.573 16.4812 33.1068 16.4672 33.0916C16.4601 33.0763 15.9811 32.4662 15.4035 31.7417C14.7202 30.8722 14.2694 30.3689 14.0933 30.2774C13.4101 29.8961 12.3464 30.2774 11.8604 31.0858C11.5575 31.5663 11.5645 31.8942 11.8674 32.3823C12.1422 32.8323 12.6986 33.1755 13.1494 33.1755C13.5509 33.1755 14.0722 32.9924 14.4808 32.7179C14.6709 32.5882 14.847 32.5043 14.8682 32.5425C14.8963 32.573 15.1218 32.8551 15.3683 33.1602L15.8121 33.7169L15.4528 34.1135C15.2485 34.3347 15.0865 34.5559 15.0865 34.6092C15.0865 34.8762 16.0656 35.1507 17.1152 35.1812C17.6224 35.1965 17.7139 35.1736 17.7985 35.0516C17.9041 34.899 17.9323 34.9372 17.2772 34.0906L17.0659 33.8161L18.0732 32.8551L19.0805 31.8942L20.0032 33.2365C20.7851 34.3804 20.9119 34.6016 20.8133 34.6626C20.5033 34.8685 20.2216 35.1965 20.0807 35.5092C19.8201 36.104 19.9821 36.9048 20.5174 37.5531C20.8274 37.942 21.2359 38.0869 21.8981 38.0412C22.4545 38.003 22.8208 37.8581 23.2716 37.4997C23.4689 37.3395 23.8633 36.7828 23.814 36.7294C23.7295 36.6455 22.9687 36.2108 22.9476 36.2337C22.9406 36.2489 22.8419 36.4549 22.7363 36.6836C22.6236 36.9124 22.4404 37.2175 22.3207 37.3472C21.7783 37.9649 21.0035 37.3853 21.0035 36.3557C21.0035 35.3033 22.3136 34.777 24.0958 35.1202C24.779 35.2499 25.8145 35.5778 26.0892 35.7532C26.3005 35.8905 26.4273 35.8295 26.3146 35.6388C26.1244 35.3109 23.7154 34.5101 22.6306 34.4109L22.0248 34.3576L19.7215 31.0019C18.4535 29.1563 17.411 27.631 17.411 27.6081C17.411 27.5852 17.6505 27.364 17.9393 27.1276L18.4676 26.6853L18.2422 26.3421C18.1225 26.1591 18.0027 26.0065 17.9816 26.0142C17.9605 26.0142 17.3195 26.5404 16.5587 27.1734ZM13.4101 30.7502C13.5439 30.8875 13.8609 31.2612 14.1074 31.5739C14.354 31.8866 14.5864 32.1688 14.6146 32.1916C14.7414 32.2908 14.1286 32.5882 13.7482 32.6263C13.4242 32.6492 13.3185 32.6263 13.1142 32.4738C12.6986 32.1688 12.5366 31.8332 12.5718 31.3527C12.593 31.0019 12.6352 30.9028 12.8254 30.7197C12.9452 30.6053 13.072 30.5062 13.1001 30.5062C13.1354 30.5062 13.2762 30.6206 13.4101 30.7502Z" fill="#003399"/>
<path d="M83.6181 27.3259C83.5195 27.4555 83.4209 27.6081 83.3927 27.6615C83.3645 27.7072 83.5265 27.9055 83.7942 28.1419L84.245 28.5385L83.6111 29.4079C83.2589 29.8884 82.9489 30.2926 82.9278 30.3079C82.9067 30.3231 82.1459 29.8045 81.2372 29.1563C80.1666 28.3936 79.5396 27.9894 79.441 28.0047C79.3495 28.0199 79.2368 28.1419 79.1522 28.3326C78.948 28.7749 78.948 30.3994 79.1522 30.8493C79.3917 31.3756 79.5396 31.3146 80.0116 30.5138C80.237 30.1325 80.4413 29.8198 80.4695 29.8198C80.4976 29.8198 80.9344 30.1096 81.4345 30.468L82.3572 31.1239L81.2513 32.6263C80.6456 33.45 80.0539 34.2584 79.9341 34.4186L79.7228 34.7007L79.8496 35.2575C79.913 35.5549 79.9905 35.8523 80.0186 35.8981C80.0539 35.9667 80.9203 34.8456 82.5333 32.6416C83.8858 30.796 85.0128 29.2859 85.041 29.2859C85.1114 29.2859 85.5622 29.6977 86.2455 30.3918L86.8161 30.9637L86.6822 31.1315C86.6118 31.223 85.5059 32.5348 84.238 34.0372C81.9416 36.7599 81.9205 36.7828 81.9698 37.0573C82.0614 37.6369 82.16 38.1403 82.1741 38.1174C82.1882 38.1022 83.3997 36.6607 84.879 34.9143L87.5627 31.734L88.0628 32.2374L88.57 32.7483L88.8377 32.4357L89.1124 32.1306L87.6613 30.6511C86.4991 29.4613 83.9351 27.0742 83.8294 27.0742C83.8153 27.0742 83.7167 27.1886 83.6181 27.3259Z" fill="#003399"/>
<path d="M50.1452 33.7701C49.8916 34.0675 48.8209 37.3393 48.2292 39.6272C47.4755 42.5101 46.6373 46.5292 45.9399 50.6171C45.7075 51.9669 45.6723 52.3025 45.7286 52.6076C45.8625 53.3931 46.1794 54.0185 46.7289 54.5752C47.5248 55.3913 48.6519 55.7573 50.3424 55.7573C52.9205 55.7573 54.7731 54.5218 54.8717 52.7372C54.914 51.9059 53.477 44.7065 52.3429 40.0772C51.3145 35.8902 50.6171 33.6328 50.3495 33.6328C50.3002 33.6328 50.2086 33.6938 50.1452 33.7701Z" fill="#003399"/>
<path d="M74.2564 43.4637C72.2559 44.3713 67.4801 46.949 63.8666 49.0768C62.6409 49.7937 59.45 51.7232 58.9499 52.0435C58.647 52.2342 58.3863 52.3944 58.3652 52.3944C58.2807 52.3944 57.4636 53.035 57.2664 53.2562C57.1466 53.3934 56.9564 53.7061 56.8508 53.9578C56.6747 54.3468 56.6465 54.5069 56.6465 55.0255C56.6535 56.3373 57.2875 57.527 58.6118 58.6634C60.1473 59.998 61.8238 60.3031 63.3453 59.5328C64.0004 59.1972 64.1694 59.0294 65.5923 57.2753C65.8459 56.9626 66.1911 56.5356 66.3672 56.322C66.5433 56.1161 66.9589 55.5975 67.2899 55.178C67.6139 54.7586 68.1563 54.0722 68.4874 53.6527C71.0655 50.3733 73.6506 46.6058 74.996 44.173C75.6722 42.9451 75.5877 42.8612 74.2564 43.4637Z" fill="#003399"/>
<path d="M24.7161 43.2955C24.6174 43.4022 24.6808 43.5853 25.0683 44.2945C26.5898 47.1087 29.5482 51.2499 33.6196 56.2987C35.8314 59.0366 36.0639 59.2883 36.7472 59.6391C37.4023 59.9747 37.8672 60.0967 38.5293 60.0967C39.8183 60.0891 41.1144 59.395 42.2626 58.0757C44.0236 56.0623 43.9179 53.8506 42.002 52.6837C41.7836 52.5541 41.1496 52.1651 40.5861 51.8219C35.4229 48.6493 28.224 44.6835 25.5684 43.5395C24.8429 43.2268 24.7865 43.2116 24.7161 43.2955Z" fill="#003399"/>
<path d="M48.6867 58.2283C45.7775 58.7316 43.3051 60.6764 42.4105 63.1855C42.0724 64.1159 41.9738 64.81 42.016 65.8167C42.0865 67.5174 42.6641 68.9283 43.8052 70.2095C44.9675 71.5137 46.5735 72.4212 48.4049 72.8025C49.377 73.0008 51.0112 72.9856 51.9762 72.7644C56.5266 71.7272 59.2174 67.5402 57.9284 63.4982C57.4212 61.9119 56.2871 60.44 54.8361 59.4866C53.1526 58.3808 50.7224 57.8851 48.6867 58.2283Z" fill="#003399"/>
<path d="M64.4157 61.1266C63.2323 61.4774 62.3166 62.5375 61.9574 63.9865C61.7954 64.6424 61.7954 65.9771 61.9503 66.6406C62.3448 68.2574 63.3943 69.287 64.9651 69.5997L65.5568 69.7217L67.8109 69.3632C74.8619 68.2574 80.2999 67.0829 84.1177 65.855C85.2377 65.489 85.3856 65.4203 85.3856 65.2373C85.3856 65.0924 85.1954 65.0161 83.9416 64.6653C80.49 63.7044 73.2066 62.2401 67.1558 61.2791C65.2892 60.9893 64.9651 60.9664 64.4157 61.1266Z" fill="#003399"/>
<path d="M32.9078 61.325C25.3708 62.591 17.397 64.2612 15.2838 65.0238C14.7133 65.2297 14.6428 65.2755 14.7203 65.4051C14.8048 65.5501 15.0303 65.6416 16.1432 66C19.8061 67.1592 24.8848 68.2498 31.7315 69.3252C34.38 69.737 34.7745 69.7675 35.4085 69.5921C36.8877 69.1879 37.8598 68.1126 38.1626 66.5644C38.3106 65.8094 38.2613 64.3451 38.064 63.7578C37.6273 62.4232 36.8877 61.5766 35.8593 61.2334C35.2676 61.0352 34.4927 61.058 32.9078 61.325Z" fill="#003399"/>
<path d="M61.2602 71.2013C61.1827 71.2165 60.9432 71.2699 60.7319 71.3157C59.4147 71.6055 57.7171 73.0545 57.0761 74.4349C56.4703 75.7391 56.5196 76.8525 57.217 77.7906C57.5621 78.2558 57.6326 78.3016 61.5772 80.6734C66.2192 83.4647 72.1854 86.7212 74.4536 87.6974C75.6017 88.1932 75.7004 88.1245 75.1862 87.1636C73.5801 84.1587 70.2061 79.4532 65.8106 74.0994C63.9581 71.8419 63.9017 71.7885 62.9085 71.4301C62.4084 71.247 61.549 71.1326 61.2602 71.2013Z" fill="#003399"/>
<path d="M38.0854 71.6052C37.1485 71.7729 36.4512 72.1848 35.7538 72.9779C35.141 73.6796 32.0628 77.5157 31.4288 78.3623C31.1823 78.6978 30.9569 78.9876 30.9357 79.0105C30.816 79.1097 28.7662 81.9391 27.9773 83.0907C26.498 85.2337 24.8779 87.9335 24.8779 88.2462C24.8779 88.3301 24.9202 88.414 24.9695 88.4369C25.3499 88.5894 31.1471 85.5464 36.8175 82.2136C38.7475 81.0773 39.4519 80.6578 40.8607 79.7808C41.6144 79.3156 42.2484 78.9342 42.2765 78.9342C42.3047 78.9342 42.5512 78.7131 42.8189 78.4385C43.1641 78.0953 43.3613 77.8284 43.474 77.5462C44.0657 76.059 43.319 74.1906 41.544 72.7415C40.4169 71.8187 39.1842 71.4145 38.0854 71.6052Z" fill="#003399"/>
<path d="M49.2502 75.7007C48.0457 75.8609 46.968 76.349 46.3833 77.0049C45.9396 77.5006 45.693 77.9963 45.5451 78.698C45.4394 79.2166 45.4394 79.2242 45.7282 80.8486C46.9962 88.0023 48.2852 93.3256 49.5743 96.7347C49.8983 97.5888 50.0462 97.8481 50.2012 97.8481C50.4759 97.8481 51.4409 94.523 52.4834 90.0233C53.378 86.1643 54.6741 79.514 54.6741 78.82C54.66 77.0659 52.8849 75.777 50.3773 75.6931C49.8912 75.6779 49.3841 75.6855 49.2502 75.7007Z" fill="#003399"/>
</svg>
