<svg width="140" height="140" viewBox="0 0 140 140" fill="none" xmlns="http://www.w3.org/2000/svg">
<circle cx="70" cy="70" r="70" fill="#003399"/>
<g clip-path="url(#clip0_884_1714)">
<path d="M69.8509 68.8357V68.6697L61.2909 57.7459C61.2909 57.7459 59.2847 58.0115 57.1112 60.2527C55.6066 61.7967 16.6352 99.9471 16.4178 100.246C15.2475 101.906 16.6853 101.375 19.0427 100.528C19.1764 100.528 38.1856 94.452 38.1856 94.452C38.2692 94.3523 38.1689 94.4354 38.2859 94.3523C38.2191 93.5057 38.1522 90.0027 38.1187 89.7537C38.0184 88.8904 38.4866 88.6082 39.2891 88.2762L54.7706 82.6648C54.8709 82.532 69.5667 69.1014 69.8509 68.8357ZM96.6177 88.7742C98.8412 91.4471 100.078 90.9822 101.767 90.3182C102.302 90.1189 121.06 82.4158 121.462 82.2C122.799 81.4861 121.177 79.4275 120.258 78.3152C119.907 77.9002 85.9678 37.5418 85.6167 37.0936C83.995 35.0682 83.2259 34.952 79.1967 34.9686C77.4914 34.9686 61.3411 35.0516 59.7194 35.0682C56.5094 35.0848 54.2189 35.0184 56.5094 37.8738C57.7967 39.451 95.6647 87.6287 96.6177 88.7742ZM122.147 89.0398C121.763 88.99 118.034 88.2596 115.794 87.8445C115.794 87.8445 96.5675 96.2117 96.1495 96.4109C93.4745 97.6229 91.6522 95.8797 90.0137 93.9871L80.4673 81.702C79.5645 81.5525 70.3692 80.1082 69.55 80.158C69.0317 80.1912 67.945 80.2908 67.1425 80.6395C66.3233 80.9881 42.8669 89.4051 42.0309 89.7205C41.1783 90.0525 40.125 90.3182 40.1752 90.9822C40.2086 91.3973 40.5095 91.4139 40.9442 91.5633C41.3956 91.6961 91.2509 102.786 92.438 103.035C95.0461 103.583 98.8747 104.778 101.399 103.317C101.75 103.118 122.097 90.6336 122.431 90.4012C123.334 89.7371 123.15 89.2723 122.147 89.0398Z" fill="white"/>
</g>
<defs>
<clipPath id="clip0_884_1714">
<rect width="107" height="85" fill="white" transform="translate(16 27)"/>
</clipPath>
</defs>
</svg>
