<svg width="134" height="134" viewBox="0 0 134 134" fill="none" xmlns="http://www.w3.org/2000/svg">
<circle cx="67" cy="67" r="67" fill="#003399"/>
<path d="M47.905 43.1309C45.3729 43.1309 42.9444 44.1368 41.1539 45.9273C39.3634 47.7178 38.3575 50.1462 38.3575 52.6784V53.6379L67 69.0619L95.6425 53.6427V52.6784C95.6425 50.1462 94.6366 47.7178 92.8461 45.9273C91.0556 44.1368 88.6272 43.1309 86.095 43.1309H47.905ZM95.6425 59.0609L68.1314 73.8738C67.7837 74.061 67.395 74.159 67 74.159C66.6051 74.159 66.2164 74.061 65.8687 73.8738L38.3575 59.0609V81.3209C38.3575 83.853 39.3634 86.2815 41.1539 88.072C42.9444 89.8625 45.3729 90.8684 47.905 90.8684H86.095C88.6272 90.8684 91.0556 89.8625 92.8461 88.072C94.6366 86.2815 95.6425 83.853 95.6425 81.3209V59.0609Z" fill="white"/>
</svg>
