<svg width="51" height="50" viewBox="0 0 51 50" fill="none" xmlns="http://www.w3.org/2000/svg">
<path d="M48.21 0H2.20996C1.10371 0 0.209961 0.89375 0.209961 2V48C0.209961 49.1063 1.10371 50 2.20996 50H48.21C49.3162 50 50.21 49.1063 50.21 48V2C50.21 0.89375 49.3162 0 48.21 0ZM46.21 46H34.7037V30.6375H41.2037L42.1787 23.0938H34.7037V18.275C34.7037 16.0875 35.31 14.6 38.4412 14.6H42.435V7.85C41.7412 7.75625 39.3725 7.55 36.61 7.55C30.8475 7.55 26.9037 11.0687 26.9037 17.525V23.0875H20.3912V30.6312H26.91V46H4.20996V4H46.21V46Z" fill="white"/>
</svg>
