<svg width="50" height="50" viewBox="0 0 50 50" fill="none" xmlns="http://www.w3.org/2000/svg">
<path fill-rule="evenodd" clip-rule="evenodd" d="M14.693 0.15C17.3597 0.0277727 18.2097 0 25 0C31.7916 0 32.6402 0.0291591 35.3055 0.15C37.968 0.270841 39.7861 0.694455 41.3764 1.3125C43.0443 1.94048 44.5552 2.92441 45.8041 4.19584C47.0757 5.44455 48.0598 6.95559 48.6875 8.62361C49.3055 10.2139 49.7277 12.032 49.85 14.693C49.9723 17.3597 50 18.2097 50 25C50 31.7902 49.9709 32.6402 49.85 35.307C49.7291 37.968 49.3055 39.7861 48.6875 41.3764C48.0486 43.0195 47.193 44.4152 45.8041 45.8041C44.5555 47.0757 43.0443 48.0598 41.3764 48.6875C39.7861 49.3055 37.968 49.7277 35.307 49.85C32.6402 49.9723 31.7902 50 25 50C18.2097 50 17.3597 49.9709 14.693 49.85C12.032 49.7291 10.2139 49.3055 8.62361 48.6875C6.98055 48.0486 5.58473 47.193 4.19584 45.8041C2.92418 44.5555 1.94018 43.0443 1.3125 41.3764C0.694455 39.7861 0.272227 37.968 0.15 35.307C0.0277727 32.6402 0 31.7916 0 25C0 18.2083 0.0291591 17.3597 0.15 14.6945C0.270841 12.032 0.694455 10.2139 1.3125 8.62361C1.94048 6.95571 2.92441 5.44473 4.19584 4.19584C5.44452 2.92418 6.95557 1.94018 8.62361 1.3125C10.2139 0.694455 12.032 0.272227 14.693 0.15ZM35.1027 4.65C32.4666 4.53055 31.675 4.50416 25 4.50416C18.325 4.50416 17.5333 4.53055 14.8972 4.65C12.4597 4.76111 11.1361 5.16805 10.2555 5.51111C9.08889 5.96389 8.25554 6.50555 7.38055 7.38055C6.50695 8.25554 5.96389 9.08889 5.51111 10.2555C5.16805 11.1361 4.76111 12.4597 4.65 14.8972C4.53055 17.5333 4.50416 18.325 4.50416 25C4.50416 31.675 4.53055 32.4666 4.65 35.1027C4.76111 37.5402 5.16805 38.8639 5.51111 39.7445C5.91161 40.8305 6.55043 41.8127 7.38055 42.6195C8.18714 43.4495 9.16957 44.0884 10.2555 44.4889C11.1361 44.832 12.4597 45.2389 14.8972 45.35C17.5333 45.4695 18.3236 45.4959 25 45.4959C31.6764 45.4959 32.4666 45.4695 35.1027 45.35C37.5402 45.2389 38.8639 44.832 39.7445 44.4889C40.9111 44.0361 41.7445 43.4945 42.6195 42.6195C43.4495 41.813 44.0884 40.8305 44.4889 39.7445C44.832 38.8639 45.2389 37.5402 45.35 35.1027C45.4695 32.4666 45.4959 31.675 45.4959 25C45.4959 18.325 45.4695 17.5333 45.35 14.8972C45.2389 12.4597 44.832 11.1361 44.4889 10.2555C44.0361 9.08889 43.4945 8.25554 42.6195 7.38055C41.7445 6.50695 40.9111 5.96389 39.7445 5.51111C38.8639 5.16805 37.5402 4.76111 35.1027 4.65ZM21.808 32.7066C22.82 33.1259 23.9045 33.3416 25 33.3416C27.2125 33.3416 29.3341 32.4627 30.8984 30.8984C32.463 29.3341 33.3418 27.2123 33.3418 25C33.3418 22.7877 32.463 20.6659 30.8984 19.1015C29.3341 17.5372 27.2125 16.6583 25 16.6583C23.9045 16.6583 22.82 16.8741 21.808 17.2933C20.7957 17.7125 19.8762 18.3269 19.1016 19.1015C18.327 19.8761 17.7126 20.7957 17.2934 21.8077C16.8742 22.8198 16.6584 23.9045 16.6584 25C16.6584 26.0955 16.8742 27.1802 17.2934 28.1923C17.7126 29.2043 18.327 30.1239 19.1016 30.8984C19.8762 31.673 20.7957 32.2875 21.808 32.7066ZM15.9138 15.9137C18.3236 13.5038 21.592 12.15 25 12.15C28.4082 12.15 31.6766 13.5038 34.0864 15.9137C36.4961 18.3235 37.85 21.592 37.85 25C37.85 28.408 36.4961 31.6764 34.0864 34.0864C31.6766 36.4961 28.4082 37.85 25 37.85C21.592 37.85 18.3236 36.4961 15.9138 34.0864C13.5039 31.6764 12.1501 28.408 12.1501 25C12.1501 21.592 13.5039 18.3235 15.9138 15.9137ZM40.6993 14.0645C41.2689 13.4948 41.5889 12.7222 41.5889 11.9167C41.5889 11.111 41.2689 10.3385 40.6993 9.76882C40.1295 9.19918 39.357 8.87916 38.5514 8.87916C37.7459 8.87916 36.9732 9.19918 36.4036 9.76882C35.8339 10.3385 35.5139 11.111 35.5139 11.9167C35.5139 12.7222 35.8339 13.4948 36.4036 14.0645C36.9732 14.6341 37.7459 14.9542 38.5514 14.9542C39.357 14.9542 40.1295 14.6341 40.6993 14.0645Z" fill="white"/>
</svg>
