<svg width="42" height="42" viewBox="0 0 42 42" fill="none" xmlns="http://www.w3.org/2000/svg">
<path d="M37.6673 20.9998C37.6673 30.1873 30.1881 37.6665 21.0006 37.6665C11.8131 37.6665 4.33398 30.1873 4.33398 20.9998C4.33398 11.8123 11.8131 4.33317 21.0006 4.33317C30.1881 4.33317 37.6673 11.8123 37.6673 20.9998ZM41.834 20.9998C41.834 9.49984 32.5006 0.166504 21.0006 0.166504C9.50065 0.166504 0.167313 9.49984 0.167313 20.9998C0.167313 32.4998 9.50065 41.8332 21.0006 41.8332C32.5006 41.8332 41.834 32.4998 41.834 20.9998ZM21.0006 23.0832H29.334V18.9165H21.0006V12.6665L12.6673 20.9998L21.0006 29.3332L21.0006 23.0832Z" fill="#003399"/>
</svg>
