<svg width="140" height="140" viewBox="0 0 140 140" fill="none" xmlns="http://www.w3.org/2000/svg">
<circle cx="70" cy="70" r="70" fill="#003399"/>
<path d="M114.959 36.6962C105.16 37.2489 85.6832 39.2609 73.6593 46.5764C72.8296 47.0812 72.3593 47.9788 72.3593 48.9172V113.589C72.3593 115.642 74.6178 116.94 76.5222 115.987C88.893 109.798 106.784 108.11 115.63 107.648C118.65 107.49 120.998 105.083 120.998 102.198V42.1526C121 39.0049 118.253 36.5113 114.959 36.6962ZM65.3389 46.5764C53.3168 39.2609 33.8398 37.2507 24.0405 36.6962C20.7467 36.5113 18 39.0049 18 42.1526V102.2C18 105.087 20.3479 107.493 23.3682 107.65C32.2179 108.112 50.1178 109.802 62.4885 115.994C64.3875 116.945 66.6389 115.649 66.6389 113.602V48.8852C66.6389 47.945 66.1704 47.083 65.3389 46.5764Z" fill="white"/>
</svg>
