<svg width="200" height="201" viewBox="0 0 200 201" fill="none" xmlns="http://www.w3.org/2000/svg">
<circle cx="100" cy="100.5" r="100" fill="#003399"/>
<path d="M119.779 61.0921C120.878 61.0921 121.977 60.5427 122.527 59.5812C122.801 59.0317 122.939 58.4823 122.939 58.0702C122.939 57.6582 122.801 56.9714 122.527 56.5593L116.208 45.5708C116.071 45.4334 116.071 45.296 116.208 45.1587L122.527 34.1701C123.076 33.2086 123.076 32.1098 122.527 31.0109C121.977 30.0494 120.878 29.5 119.779 29.5H83.3798C82.5557 29.5 82.0062 30.0494 82.0062 30.8736V79.3606C81.7315 79.4979 81.3195 79.4979 81.0447 79.6353C80.77 79.7726 80.6327 79.91 80.358 80.0473H80.2206C80.0832 80.1847 79.9459 80.1847 79.8085 80.3221C79.5338 80.4594 79.3965 80.7341 79.2591 80.8715C78.9844 81.1462 78.7097 81.5583 78.5723 81.9703L62.7763 108.48V108.618L34.206 156.28C33.9313 156.693 33.9313 157.242 34.206 157.654C34.4807 158.066 34.8928 158.341 35.4422 158.341H130.768C131.317 158.341 131.729 158.066 132.004 157.654C132.279 157.242 132.279 156.693 132.004 156.28L103.571 108.618L87.7752 82.1077C87.6379 81.833 87.5005 81.6956 87.3632 81.4209C87.2258 81.2836 87.0885 81.0088 86.9511 80.8715C86.6764 80.5968 86.2643 80.1847 85.8522 80.0473C85.4402 79.7726 85.1655 79.6353 84.7534 79.4979V61.0921H119.779ZM85.3028 83.3439L99.8626 107.793H66.3476L81.0447 83.2066C81.1821 82.7945 81.4568 82.5198 81.8689 82.2451C82.1436 82.1077 82.4183 81.9703 82.8304 81.9703C82.9677 82.1077 83.2425 82.1077 83.3798 82.1077C83.5172 82.1077 83.6545 82.1077 83.7919 81.9703C84.0666 81.9703 84.204 82.1077 84.3413 82.2451C84.7534 82.6571 85.0281 82.9318 85.3028 83.3439Z" fill="white"/>
<path d="M142.581 119.057L129.944 98.7279L129.257 97.6291L128.845 97.217C128.57 96.9423 128.158 96.805 127.746 96.5302C127.197 96.2555 126.51 96.1182 125.961 96.1182H125.274C125.136 96.1182 124.862 96.1182 124.724 96.2555C124.175 96.3929 123.625 96.6676 123.076 97.0797L122.664 97.4917C122.389 97.7664 122.115 98.0412 121.977 98.4532L111.126 115.898L134.339 154.77C135.026 155.868 135.026 157.105 134.614 158.203H164.558C165.107 158.203 165.519 157.929 165.794 157.517C166.069 157.105 166.069 156.555 165.794 156.143L142.581 119.057ZM112.912 118.233L124.312 99.8268C124.587 99.2774 125.136 98.8653 125.823 98.8653C126.51 98.8653 127.059 99.2774 127.471 99.9642L138.872 118.233H112.912Z" fill="white"/>
</svg>
