<svg width="140" height="140" viewBox="0 0 140 140" fill="none" xmlns="http://www.w3.org/2000/svg">
<circle cx="70" cy="70" r="70" fill="#003399"/>
<path d="M69.9999 36.8521L23.4795 54.2976L69.9999 77.5578L92.157 66.4793L71.3711 60.1242C70.943 60.3294 70.4746 60.4365 69.9999 60.4376C69.1545 60.4376 68.3437 60.1017 67.746 59.504C67.1482 58.9062 66.8124 58.0954 66.8124 57.2501C66.8124 56.4047 67.1482 55.5939 67.746 54.9962C68.3437 54.3984 69.1545 54.0626 69.9999 54.0626L69.4727 55.7762L73.1656 56.9124C73.1662 56.9161 73.1667 56.9198 73.1672 56.9235L78.6167 58.59L109.644 68.1364V70.5561C109.215 70.848 108.864 71.2404 108.621 71.699C108.378 72.1577 108.25 72.6687 108.25 73.1878C108.25 73.7187 108.384 74.2411 108.637 74.7075C108.891 75.1739 109.257 75.5695 109.703 75.8585C108.252 81.342 108.25 93.7834 108.25 98.6876C111.437 100.758 111.437 100.834 114.625 98.6876C114.625 93.784 114.623 81.345 113.173 75.8603C113.618 75.5711 113.984 75.1751 114.238 74.7083C114.492 74.2416 114.625 73.7188 114.625 73.1876C114.625 72.6679 114.498 72.1562 114.255 71.6969C114.012 71.2377 113.66 70.8448 113.23 70.5525V65.4883L101.412 61.852L116.52 54.2976L69.9999 36.8521ZM42.831 68.6055L40.2167 84.292C45.4312 84.9739 51.6689 88.0049 57.4033 91.5888C60.6645 93.6272 63.7191 95.8646 66.2 98.0355C67.7164 99.3623 68.9844 100.635 69.9999 101.888C71.0153 100.635 72.2833 99.3623 73.7998 98.0355C76.2806 95.8646 79.335 93.6272 82.5965 91.5888C88.3308 88.0049 94.5685 84.9739 99.7831 84.292L97.1683 68.6055H95.9232L69.9999 81.5673L44.0761 68.6055H42.831Z" fill="white"/>
</svg>
