<svg width="26" height="25" viewBox="0 0 26 25" fill="none" xmlns="http://www.w3.org/2000/svg">
<path d="M5.15278 10.8194C7.15278 14.75 10.375 17.9583 14.3056 19.9722L17.3611 16.9167C17.7361 16.5417 18.2917 16.4167 18.7778 16.5833C20.3333 17.0972 22.0139 17.375 23.7361 17.375C24.5 17.375 25.125 18 25.125 18.7639V23.6111C25.125 24.375 24.5 25 23.7361 25C10.6944 25 0.125 14.4306 0.125 1.38889C0.125 0.625 0.75 0 1.51389 0H6.375C7.13889 0 7.76389 0.625 7.76389 1.38889C7.76389 3.125 8.04167 4.79167 8.55555 6.34722C8.70833 6.83333 8.59722 7.375 8.20833 7.76389L5.15278 10.8194Z" fill="white"/>
</svg>
