<svg width="140" height="140" viewBox="0 0 140 140" fill="none" xmlns="http://www.w3.org/2000/svg">
<circle cx="70" cy="70" r="70" fill="#003399"/>
<path d="M33.5625 31.5625V104.438H106.438V31.5625H33.5625ZM40.1875 38.1875H99.8125V97.8125H40.1875V38.1875ZM80.4807 48.1316C76.2308 48.1316 74.7733 51.1692 74.7733 53.2097V58.6256C74.7733 61.375 76.2739 64.0018 80.1462 64.0018C86.6453 63.9952 85.8569 59.0761 85.8569 55.6609H80.7789V57.453H83.7734C83.7734 60.1196 82.5246 61.9116 80.1495 61.9116C78.2746 61.9116 77.1948 60.2885 77.1948 58.036V53.5409C77.1948 51.4541 79.1491 50.2549 80.4807 50.2549C82.8558 50.2549 83.7668 52.3352 83.7668 52.3352L85.5588 51.1261C85.5588 51.1261 84.6876 48.1316 80.4807 48.1316ZM61.997 58.3673C58.9992 58.3673 54.4213 58.6554 50.1316 58.4898V59.8214C52.7154 60.3216 53.7919 60.0699 53.7919 63.8196V82.1444C53.7919 85.9339 52.7121 85.6424 50.1316 86.1426V87.5206C51.3804 87.4775 53.5435 87.3516 55.7463 87.3516C57.8332 87.3516 60.5395 87.4378 61.7088 87.5173V86.1426C58.3731 85.6854 57.3694 86.0598 57.3694 82.1444V74.3997C58.4957 74.4826 59.4563 74.4759 60.9569 74.4759C63.7891 79.5573 66.4921 83.3534 68.0324 85.1422C70.8215 88.5176 75.2834 88.0207 76.3666 87.5206V86.2718C74.7004 86.2684 73.0309 85.1455 71.8252 83.8106C69.1181 80.8097 66.7569 77.514 64.7861 73.9857C68.5359 73.0681 71.325 69.5271 71.325 66.0257C71.325 60.7788 67.2837 58.3673 61.997 58.3673ZM61.1225 60.4806C65.0379 60.4806 67.3666 62.5244 67.3666 66.2742C67.3666 69.9444 64.8656 72.3924 60.7018 72.3924C59.1615 72.3924 58.4559 72.3526 57.3727 72.2698V60.6065C58.4526 60.4806 59.8704 60.4806 61.1225 60.4806Z" fill="white"/>
</svg>
