<svg width="42" height="42" viewBox="0 0 42 42" fill="none" xmlns="http://www.w3.org/2000/svg">
<path d="M4.33366 20.9997C4.33366 11.8122 11.8128 4.333 21.0003 4.333C30.1878 4.333 37.667 11.8122 37.667 20.9997C37.667 30.1872 30.1878 37.6663 21.0003 37.6663C11.8128 37.6663 4.33366 30.1872 4.33366 20.9997ZM0.166992 20.9997C0.166992 32.4997 9.50033 41.833 21.0003 41.833C32.5003 41.833 41.8337 32.4997 41.8337 20.9997C41.8337 9.49967 32.5003 0.166336 21.0003 0.166336C9.50033 0.166336 0.166992 9.49967 0.166992 20.9997ZM21.0003 18.9163H12.667V23.083H21.0003V29.333L29.3337 20.9997L21.0003 12.6663L21.0003 18.9163Z" fill="#003399"/>
</svg>
