<svg width="140" height="140" viewBox="0 0 140 140" fill="none" xmlns="http://www.w3.org/2000/svg">
<circle cx="70" cy="70" r="70" fill="#003399"/>
<g clip-path="url(#clip0_884_1769)">
<path d="M86.6098 80.7292L70 97.3124L53.3902 80.7292C40.9415 81.2681 31 91.4371 31 103.987V105.656C31 110.263 34.7433 114 39.3571 114H100.643C105.257 114 109 110.263 109 105.656V103.987C109 91.4371 99.0585 81.2681 86.6098 80.7292ZM33.3679 38.8714L34.4821 39.1322V49.2837C33.2634 50.0138 32.3929 51.2828 32.3929 52.8125C32.3929 54.2726 33.1938 55.4894 34.3254 56.2369L31.6094 67.0664C31.3134 68.2658 31.975 69.5 32.9326 69.5H40.2103C41.1679 69.5 41.8295 68.2658 41.5335 67.0664L38.8174 56.2369C39.9491 55.4894 40.75 54.2726 40.75 52.8125C40.75 51.2828 39.8795 50.0138 38.6607 49.2837V40.1404L50.1518 42.9042C48.6545 45.8941 47.7143 49.2316 47.7143 52.8125C47.7143 65.1021 57.6906 75.0625 70 75.0625C82.3094 75.0625 92.2857 65.1021 92.2857 52.8125C92.2857 49.2316 91.3629 45.8941 89.8482 42.9042L106.615 38.8714C109.783 38.1066 109.783 34.1607 106.615 33.3959L73.4647 25.3998C71.2013 24.8609 68.8161 24.8609 66.5527 25.3998L33.3679 33.3785C30.2165 34.1433 30.2165 38.1066 33.3679 38.8714Z" fill="white"/>
</g>
<defs>
<clipPath id="clip0_884_1769">
<rect width="78" height="89" fill="white" transform="translate(31 25)"/>
</clipPath>
</defs>
</svg>
