<svg width="200" height="201" viewBox="0 0 200 201" fill="none" xmlns="http://www.w3.org/2000/svg">
<circle cx="100" cy="100.5" r="100" fill="#003399"/>
<path d="M119.959 103.643C116.307 106.946 104.334 120.916 102.058 123.468C101.535 124.073 100.793 124.404 99.9957 124.404C99.1982 124.404 98.4557 124.046 97.9334 123.468C96.013 121.351 104.89 131.138 79.1522 102.763C70.7739 93.7977 76.9289 78.5923 89.0242 78.5923C93.314 78.5923 97.4104 80.7369 100.023 84.2016C102.608 80.7369 106.705 78.5923 110.995 78.5923C123.65 78.5923 129.565 95.0969 119.959 103.643Z" fill="white"/>
<path d="M157.817 53.0888C148.238 45.1831 133.629 45.5891 121.404 48.2915C115.475 40.2265 108.094 35.5 100.004 35.5C91.914 35.5 84.5334 40.2265 78.6049 48.2915C66.3809 45.5894 51.7711 45.1827 42.1919 53.0889C27.9505 64.852 34.5374 85.9515 44.8517 101.496C34.5496 117.024 27.9604 138.148 42.1919 149.903C51.8072 157.839 66.476 157.378 78.6049 154.698C84.5334 162.762 91.914 167.489 100.004 167.489C108.094 167.489 115.475 162.762 121.404 154.698C144.582 159.82 165.999 153.353 165.999 131.404C165.999 122.357 162.094 111.952 155.157 101.496C165.459 85.9698 172.047 64.8427 157.817 53.0888ZM154.315 57.3317C165.493 66.5636 159.607 84.301 151.788 96.7072C146.769 90.0335 140.536 83.4293 133.33 77.2165C131.406 67.9864 128.408 59.8243 124.599 53.2204C134.334 51.3525 146.667 51.0178 154.315 57.3317ZM127.502 123.522C118.799 130.708 109.39 136.722 100.004 141.282C90.6183 136.722 81.2097 130.708 72.5065 123.522C72.2662 123.324 72.0406 123.119 71.803 122.92C70.4885 116.223 69.7568 108.995 69.7568 101.494C69.7568 93.994 70.4885 86.7662 71.803 80.0686C80.6198 72.6715 90.2602 66.4411 100.004 61.7067C109.677 66.4063 119.325 72.6181 128.205 80.069C129.52 86.7662 130.252 93.994 130.252 101.494C130.252 108.995 129.52 116.223 128.205 122.92C127.968 123.12 127.742 123.324 127.502 123.522ZM126.077 131.639C124.184 138.051 121.719 143.747 118.832 148.424C114.779 147.335 110.625 145.91 106.428 144.169C113.115 140.641 119.741 136.432 126.077 131.639ZM93.5803 144.169C89.3831 145.91 85.2296 147.335 81.1761 148.424C78.2894 143.747 75.8249 138.051 73.9311 131.639C80.2678 136.432 86.8938 140.641 93.5803 144.169ZM65.23 117.076C59.8942 111.999 55.2889 106.742 51.4831 101.495C55.2889 96.2493 59.8942 90.9918 65.23 85.9139C64.5996 90.8969 64.2572 96.107 64.2572 101.494C64.2572 106.882 64.5996 112.093 65.23 117.076ZM73.9311 71.3497C75.8249 64.9378 78.2894 59.2419 81.1761 54.5651C85.2303 55.654 89.3838 57.0793 93.5809 58.82C86.8938 62.3478 80.2678 66.5574 73.9311 71.3497ZM106.428 58.82C110.625 57.0792 114.778 55.654 118.832 54.5651C121.719 59.2419 124.184 64.9378 126.077 71.3497C119.741 66.5574 113.115 62.3478 106.428 58.82ZM134.778 85.9139C140.114 90.9918 144.72 96.2494 148.525 101.495C144.72 106.742 140.114 111.999 134.778 117.076C135.409 112.093 135.751 106.882 135.751 101.494C135.751 96.107 135.409 90.8969 134.778 85.9139ZM100.004 40.9995C105.608 40.9995 110.913 44.2394 115.472 49.8087C110.402 51.29 105.211 53.2587 100.004 55.6533C94.7974 53.2587 89.606 51.29 84.5368 49.8087C89.0951 44.2394 94.3999 40.9995 100.004 40.9995ZM45.6936 57.3317C53.3391 51.0198 65.6682 51.3513 75.4093 53.2204C71.6002 59.8243 68.6021 67.9863 66.678 77.2165C59.472 83.4293 53.2393 90.0335 48.2205 96.7072C40.4139 84.3205 34.5114 66.5672 45.6936 57.3317ZM45.6936 145.66C34.5159 136.428 40.4025 118.69 48.2205 106.284C53.2394 112.956 59.472 119.56 66.678 125.772C68.6021 135.002 71.6002 143.165 75.4093 149.768C65.6461 151.642 53.3214 151.961 45.6936 145.66ZM100.004 161.989C94.4006 161.989 89.0951 158.75 84.5374 153.181C89.606 151.7 94.7974 149.731 100.004 147.336C105.211 149.731 110.402 151.7 115.471 153.181C110.913 158.75 105.608 161.989 100.004 161.989ZM160.499 131.404C160.499 149.46 142.5 153.203 124.599 149.768C128.408 143.165 131.406 135.002 133.33 125.772C140.536 119.56 146.769 112.956 151.788 106.284C157.39 115.173 160.499 123.861 160.499 131.404Z" fill="white"/>
</svg>
