<svg width="64" height="48" viewBox="0 0 64 48" fill="none" xmlns="http://www.w3.org/2000/svg">
<path d="M59.0351 10.2461C58.3887 7.78742 56.4842 5.85129 54.0656 5.19419C49.6822 4 32.1049 4 32.1049 4C32.1049 4 14.5276 4 10.1441 5.19419C7.72568 5.85129 5.82093 7.78742 5.17457 10.2461C4 14.7024 4 24 4 24C4 24 4 33.2975 5.17457 37.7542C5.82093 40.2126 7.72568 42.1487 10.1441 42.8061C14.5276 44 32.1049 44 32.1049 44C32.1049 44 49.6822 44 54.0656 42.8061C56.4842 42.1487 58.3887 40.2126 59.0351 37.7542C60.2097 33.2975 60.2097 24 60.2097 24C60.2097 24 60.2097 14.7024 59.0351 10.2461" stroke="white" stroke-width="6.04593" stroke-miterlimit="10"/>
<path d="M26.3564 32.4417L41.0476 24.0005L26.3564 15.5586V32.4417Z" stroke="white" stroke-width="6.04593" stroke-miterlimit="10" stroke-linecap="round" stroke-linejoin="round"/>
</svg>
