<svg width="15" height="18" viewBox="0 0 15 18" fill="none" xmlns="http://www.w3.org/2000/svg">
<path d="M6.42857 0C5.25 0 4.28571 0.964286 4.28571 2.14286H2.14286C0.964286 2.14286 0 3.10714 0 4.28571H15C15 3.10714 14.0357 2.14286 12.8571 2.14286H10.7143C10.7143 0.964286 9.75 0 8.57143 0H6.42857ZM2.14286 6.42857V16.7357C2.14286 16.9714 2.31429 17.1429 2.55 17.1429H12.4714C12.7071 17.1429 12.8786 16.9714 12.8786 16.7357V6.42857H10.7357V13.9286C10.7357 14.5286 10.2643 15 9.66429 15C9.06429 15 8.59286 14.5286 8.59286 13.9286V6.42857H6.45V13.9286C6.45 14.5286 5.97857 15 5.37857 15C4.77857 15 4.30714 14.5286 4.30714 13.9286V6.42857H2.16429H2.14286Z" fill="black"/>
</svg>
