<svg width="37" height="35" viewBox="0 0 37 35" fill="none" xmlns="http://www.w3.org/2000/svg">
<path d="M23.424 16.4063H13.0068C12.3966 16.4063 11.8906 15.9104 11.8906 15.3125C11.8906 14.7146 12.3966 14.2188 13.0068 14.2188H23.424C24.0342 14.2188 24.5401 14.7146 24.5401 15.3125C24.5401 15.9104 24.0342 16.4063 23.424 16.4063Z" fill="#003298"/>
<path d="M24.1684 32.5515C23.6624 32.5515 23.1564 32.4056 22.7249 32.1286L16.3852 27.9869H10.7748C5.65547 27.9869 2.21777 24.6181 2.21777 19.6015V10.8515C2.21777 5.83481 5.65547 2.46606 10.7748 2.46606H25.6566C30.7759 2.46606 34.2136 5.83481 34.2136 10.8515V19.6015C34.2136 24.239 31.267 27.4765 26.7727 27.9286V29.9994C26.7727 30.9473 26.2519 31.8077 25.4036 32.2452C25.0167 32.4494 24.5851 32.5515 24.1684 32.5515V32.5515ZM10.7748 4.63898C6.9353 4.63898 4.45004 7.0744 4.45004 10.8369V19.5869C4.45004 23.3494 6.9353 25.7848 10.7748 25.7848H16.7275C16.9507 25.7848 17.1591 25.8431 17.3525 25.9744L23.9749 30.2911C24.1386 30.3931 24.2875 30.3494 24.3619 30.3056C24.4363 30.2619 24.5553 30.1744 24.5553 29.9848V26.8786C24.5553 26.2806 25.0613 25.7848 25.6715 25.7848C29.511 25.7848 31.9962 23.3494 31.9962 19.5869V10.8369C31.9962 7.0744 29.511 4.63898 25.6715 4.63898H10.7748V4.63898Z" fill="#003298"/>
</svg>
