<svg width="36" height="35" viewBox="0 0 36 35" fill="none" xmlns="http://www.w3.org/2000/svg">
<path d="M22.4194 33.1755H13.4904C11.526 33.1755 9.88898 32.9859 8.50497 32.5776C8.26024 32.5038 8.04793 32.3515 7.90217 32.1452C7.75642 31.9389 7.68569 31.6905 7.70136 31.4401C8.0734 27.0797 12.5826 23.6526 17.9549 23.6526C23.3272 23.6526 27.8215 27.0651 28.2085 31.4401C28.2531 31.9651 27.9257 32.4318 27.4048 32.5776C26.0208 32.9859 24.3838 33.1755 22.4194 33.1755V33.1755ZM10.0973 30.7109C11.0795 30.9005 12.1957 30.988 13.4904 30.988H22.4194C23.7142 30.988 24.8303 30.9005 25.8125 30.7109C25.0238 27.9109 21.7646 25.8401 17.9549 25.8401C14.1452 25.8401 10.8861 27.9109 10.0973 30.7109V30.7109Z" fill="#0A3388"/>
<path d="M22.4196 2.91675H13.4905C6.0496 2.91675 3.07324 5.83341 3.07324 13.1251V21.8751C3.07324 27.3876 4.76977 30.4063 8.81761 31.5293C9.14501 27.7376 13.1184 24.748 17.955 24.748C22.7916 24.748 26.765 27.7376 27.0924 31.5293C31.1403 30.4063 32.8368 27.3876 32.8368 21.8751V13.1251C32.8368 5.83341 29.8605 2.91675 22.4196 2.91675ZM17.955 20.6647C15.0084 20.6647 12.6273 18.3167 12.6273 15.4292C12.6273 12.5417 15.0084 10.2084 17.955 10.2084C20.9016 10.2084 23.2827 12.5417 23.2827 15.4292C23.2827 18.3167 20.9016 20.6647 17.955 20.6647Z" stroke="#0A3388" stroke-width="1.5" stroke-linecap="round" stroke-linejoin="round"/>
<path d="M17.958 21.7583C16.2476 21.7544 14.6086 21.0859 13.4006 19.8993C12.1926 18.7128 11.5142 17.1052 11.5142 15.4291C11.5142 11.9437 14.4012 9.1145 17.958 9.1145C21.5147 9.1145 24.4018 11.9437 24.4018 15.4291C24.4018 17.1052 23.7234 18.7128 22.5153 19.8993C21.3073 21.0859 19.6683 21.7544 17.958 21.7583V21.7583ZM17.958 11.302C16.8584 11.3306 15.8137 11.7788 15.0464 12.551C14.279 13.3232 13.8496 14.3585 13.8496 15.4364C13.8496 16.5143 14.279 17.5495 15.0464 18.3218C15.8137 19.094 16.8584 19.5421 17.958 19.5708C19.0575 19.5421 20.1022 19.094 20.8696 18.3218C21.637 17.5495 22.0664 16.5143 22.0664 15.4364C22.0664 14.3585 21.637 13.3232 20.8696 12.551C20.1022 11.7788 19.0575 11.3306 17.958 11.302V11.302Z" fill="#0A3388"/>
</svg>
