<svg width="134" height="134" viewBox="0 0 134 134" fill="none" xmlns="http://www.w3.org/2000/svg">
<circle cx="67" cy="67" r="67" fill="#003399"/>
<g clip-path="url(#clip0_365_7)">
<path d="M69.4355 94.9908C75.4325 87.5138 89.11 69.3918 89.11 59.2128C89.11 46.8675 79.0565 36.8516 66.665 36.8516C54.2735 36.8516 44.22 46.8675 44.22 59.2128C44.22 69.3918 57.8974 87.5138 63.8944 94.9908C65.3323 96.7727 67.9976 96.7727 69.4355 94.9908V94.9908ZM66.665 66.6666C62.5384 66.6666 59.1833 63.324 59.1833 59.2128C59.1833 55.1016 62.5384 51.7591 66.665 51.7591C70.7916 51.7591 74.1466 55.1016 74.1466 59.2128C74.1466 63.324 70.7916 66.6666 66.665 66.6666Z" fill="white"/>
</g>
<defs>
<clipPath id="clip0_365_7">
<rect width="44.89" height="59.63" fill="white" transform="translate(44.22 36.8516)"/>
</clipPath>
</defs>
</svg>
