<svg id="logo-loader" xmlns="http://www.w3.org/2000/svg" xmlns:xlink="http://www.w3.org/1999/xlink" viewBox="0 0 100 107" shape-rendering="geometricPrecision" text-rendering="geometricPrecision"><path id="logo-loader-s-path1" d="M19.75,0.076248c-12.25652.030506-19.687908.076265-19.723127.122025-.077484.106771.028175,60.356227.119747,67.410727.112703,8.8468.281759,16.4733.422638,19.5392.049308,1.0219.077484,1.1973.239495,1.5634C1.94283,91.2207,7.97247,94.4162,15.263,96.3839c1.8948.5186,2.8176.694,9.291,1.8075c9.1078,1.571,13.6441,2.6466,17.2647,4.1186c2.5429,1.029,6.4382,3.18,7.8188,4.309.2536.213.479.381.5002.381.014,0,.2606-.183.5423-.404c1.5638-1.251,5.2689-3.287,7.9175-4.355c3.5079-1.411,7.9597-2.4938,16.1518-3.9352c7.9878-1.4109,8.8402-1.5787,11.1295-2.2499c4.8673-1.4185,9.2064-3.4243,11.7352-5.4224.7044-.5567,1.4511-1.4033,1.7187-1.9448.2254-.4652.2325-.4957.2888-1.8151.3452-8.2366.4365-25.6251.3452-69.4241l-.0352-17.449517-30.2539.015253c-16.6378.007627-39.1081.030506-49.9276.061012ZM96.332,7.48922c.1761,17.39608.2184,75.55588.0493,77.79048-.0775,1.1058-.3029,1.6168-1.0918,2.471-2.881,3.1268-11.3619,6.0249-26.3515,8.9993-3.1627.6253-3.9517.8007-5.4661,1.2126-4.4588,1.2126-9.0233,3.1194-12.5594,5.2474l-.7678.465-.3592-.214c-3.2544-1.944-6.7059-3.5003-10.4322-4.7053-2.5921-.8389-4.1629-1.2202-8.4527-2.0515-15.6235-3.0277-24.6539-6.2995-26.6403-9.6628-.42264-.7169-.44377-.8847-.52126-3.6455-.10566-4.0268-.19723-39.4596-.15496-60.7223L3.62634,3.12685L20.2924,3.1116c9.1642-.01525,30.0143-.0305,46.3281-.04576l29.6622-.01525.0493,4.43863Z" fill="#039"/><path id="logo-loader-s-path2" d="M46.8197,10.8219c-1.0213.2746-1.6201,1.388-1.3806,2.593.0916.4805.3804,1.1516.6129,1.4567l.1761.2212-.1621.0381c-.0915.0229-.3381.061-.5494.0763-.2113.0228-1.1341.1144-2.0427.2135l-1.6554.1754-.0422.3051c-.0282.2135-.0493.244-.0564.0991c0-.1144-.0282-.2212-.0634-.244-.0282-.0153-.5917.0839-1.2468.2288-.6621.1449-1.4369.3126-1.7257.366-3.3459.6635-7.9949,2.2804-12.1861,4.2404-.8312.3889-1.5215.7169-1.5356.7245-.0282.0229.2043.6711.2677.7474.0211.0305.2747-.0534.5494-.183.2818-.1373.5283-.2288.5494-.206s.641,1.6016,1.3736,3.5006c.7396,1.9066,1.3806,3.5311,1.4299,3.615.0705.1068.2677.1983.641.2974.2959.0763.5495.122.5565.1144.0141-.0152-.6198-1.6931-1.4088-3.7294-.7889-2.0362-1.4862-3.8285-1.5426-3.9886l-.1057-.2898.472-.2365c1.0918-.5338,5.121-2.1201,5.1914-2.0362.0352.0457.6762,2.3794.6551,2.3947-.0071.0076-.8171.3356-1.8033.7321-1.0566.4195-1.8173.7703-1.8666.8466-.1832.3279.6973,1.3117,1.6342,1.8227.3733.2059.4649.2288.6128.1602.0986-.0458.1761-.1373.1761-.1983s-.1127-.45-.2465-.8542c-.1339-.4042-.2395-.7474-.2325-.755.0634-.061,1.9794-.8008,2.0005-.7779.0141.0152.2888.9533.6058,2.0897l.5705,2.0591.5917.2288c.5847.2288.5988.2364.5565.0763-.0211-.0915-.5494-1.9677-1.1623-4.1717-.7889-2.8142-1.0988-4.0192-1.0425-4.0573.1198-.0763,1.6483-.5339,1.9442-.572l.2536-.0382.3662,1.7465c.1973.9533.5636,2.6769.8031,3.8285l.4437,2.0897.5213.2593c.2888.1449.5494.244.5776.2364.0211-.0152-.3452-1.8609-.8171-4.1031-.479-2.2421-.8664-4.1411-.8735-4.2098c0-.0915.0916-.1601.3029-.2212.4579-.1372,1.8667-.4499,2.0076-.4499.1056,0,.162.1983.3592,1.3117.1268.7246.2465,1.3728.2606,1.4491.0282.0915-.0282.1373-.1972.1754-.4226.0915-.486.1296-.5424.2898-.0916.2745.0493.5567.5072,1.0143.4085.4119,1.0073.7932,1.2538.7932.2325,0,.3029-.1983.2113-.6635-.1338-.7245-.1902-.6635.9087-.9.5424-.1144,1.0073-.1906,1.0284-.1754.0211.0229.0986.8466.1761,1.8228.0775.9838.155,1.8532.1691,1.9371.0281.1297,1.0002.8542,1.0566.7855.014-.0152-.1339-1.9142-.3241-4.2174-.1902-2.3109-.3451-4.248-.3451-4.3243c0-.0991.1127-.1296.6692-.1754.3662-.0305.6903-.0839.7114-.122s.1902-.0686.3804-.0686h.3451l.0352.3203c.0212.183.0987,1.7541.1832,3.4929.0775,1.7389.162,3.3786.1831,3.6302l.0353.4729.5001.3584c.2676.1907.5001.3432.5142.328.007-.0153-.0705-1.8075-.1832-3.9887s-.1972-4.1259-.2042-4.3319v-.3584h.3029c.162,0,.4649-.0229.6691-.0458l.3663-.0533v-.3127c0-.5263-.0211-.5339-.9791-.4729l-.8453.0534-.1761-.2898c-.2465-.4118-.4226-1.1211-.3663-1.5253.1268-1.022.8242-1.5634,2.0146-1.5711c1.3384-.0076,2.4725.7322,3.5361,2.2804.4719.694.4579.6864.9439.4804l.1972-.0762-.5635-.6101c-1.0918-1.205-2.0498-1.9982-2.9866-2.4939-.9369-.4957-1.8033-.6635-2.5007-.4805Zm-4.3743,5.6055l.5847-.0534.0986,1.327c.0564.7322.0986,1.3957.0986,1.4719c0,.1297-.1338.1755-1.0495.3661-.7326.1525-1.0637.1983-1.0989.1373-.0775-.1297-.5142-2.7456-.4719-2.7989.0281-.0229.3099-.0992.6269-.1678.5494-.122.5846-.1449.5705-.3203-.007-.1068,0-.1297.0212-.0458.0352.1144.1056.122.6198.0839Z" fill="#039"/><path id="logo-loader-s-path3" d="M69.22,13.8346c-.0422.1373-.1761,1.0754-.1761,1.205c0,.0992.1268.1373.6763.1754.8523.0687.9439.1526,1.12.9534.3028,1.4337.4578,2.3565.4578,2.7531c0,.4042.0634.5263.2536.5263.0141,0,.0282-.2136.0282-.4805-.0071-1.2584-.6129-4.3776-.9087-4.6522-.1761-.1678-1.4229-.5796-1.4511-.4805Z" fill="#039"/><path id="logo-loader-s-path4" d="M48.6162,15.4435v.4194h.796c1.1904,0,1.1059-.0686,1.1059.9915c0,.4881-.0211,1.1058-.0423,1.3651l-.0493.4652h-.5494c-.4931,0-.5635.0153-.634.1602-.2817.572.5706,2.2879,2.3245,4.7055.6903.9457.803,1.0754.9228,1.0067.2254-.1296.2184-.2059-.0211-.4347-.3734-.3584-1.1059-1.3194-1.8385-2.4252-.3804-.572-.6833-1.0448-.6692-1.0525.0141-.0152.1409-.0762.2747-.1372.3381-.1678.951-.7779,1.0566-1.0525l.0845-.2364.2959.2593c.5424.4805.7467.5796,1.2186.5796h.4297l.317.4805c.3522.5338.7748.8923,1.0495.8923.2043,0,.2677-.1983.2677-.8618v-.3813l1.1059.0533c.6128.0305,1.1129.0611,1.12.0687.007.0076-.1198.9152-.2747,2.021l-.2888,2.0058.4156.4499c.2254.2517.4296.4348.4508.4119.0211-.0229.3099-1.9372.641-4.248l.5987-4.2098.2465.0076c.1339,0,.4438.0305.6833.061l.4297.061.0634-.4042c.0352-.2288.0422-.4194.0211-.4347-.1338-.061-3.4234-.5949-3.4586-.5567-.0281.0228-.0634.2211-.0915.4347l-.0423.3813.5424.0915c.2958.0534.5565.1144.5776.1297.0282.0305-.1691,1.6092-.324,2.5396l-.0353.2517-.9298-.0458c-.5071-.0229-1.0284-.061-1.1622-.0839l-.2325-.0381.0423-1.1211c.0282-.6178.0634-1.2813.0845-1.4795l.0423-.3661.6128.0534.6199.0457.0422-.4118c.0282-.2212.0282-.4195.0071-.4423s-.7537-.0839-1.6342-.1373-1.8033-.1297-2.0568-.1678c-.2536-.0458-1.2891-.0839-2.3034-.0839h-1.8526v.4195Zm4.2968.572c0,.0457.2607.0762.634.0762h.6339l-.007.7017c-.0141.8084-.1057,2.4176-.1197,2.0972-.0071-.122-.0353-.2059-.0634-.1906-.7537.4194-1.0848.5415-1.5356.572-.4368.0305-.5213.0152-.7396-.1449-.2748-.2059-.2677-.1678-.148-1.1898.0705-.6482.0634-1.0295-.0352-1.7541l-.0352-.244h.7114c.4227,0,.7044.0305.7044.0763Z" fill="#039"/><path id="logo-loader-s-path5" d="M65.367,17.6555l-.1057.4194l2.1907.7703c1.2045.4271,2.3245.8389,2.4794.9152.1621.0762.4438.2059.634.2822.1902.0839.3522.1983.3663.2593.0211.122-1.4229,4.3166-1.5215,4.4233-.1127.1221-1.0707.3661-1.4229.3661-.5846,0-1.4651-.3661-1.8385-.7703-.1972-.2135-.1831-.8618.0282-1.2888.1902-.3966.7114-.8008,1.4088-1.0983l.479-.2059.648.2364c.3593.1373.6833.2593.7256.2746.0563.0305.2747-.877.2183-.9304-.0915-.0687-4.5786-1.6397-4.6067-1.6016-.0212.0229-.0141.2517.0211.511l.0634.4652.6692.2288c.6973.244.7959.2898.6551.3432-.2395.0915-.7326.6101-.9087.9609-.1831.3585-.2043.4652-.2043,1.083s.0212.7245.2043,1.0906c.5776,1.1211,1.8737,1.9219,2.9937,1.838.1972-.0153.3592-.0153.3592.0076s-.0986.3508-.2254.7245l-.2183.6864.2958.5186c.1691.2822.324.511.3592.511.0282,0,.6622-1.7694,1.4088-3.9277.7467-2.1583,1.3877-3.9581,1.4159-4.0115.0352-.061.2042-.0229.6269.1525.317.1297.5987.2364.6339.2364.0564,0,.317-.755.2748-.7931-.0141-.0077-.627-.267-1.3666-.5796-.7325-.3051-1.4017-.6025-1.4792-.6559-.1057-.0687-3.7263-1.3804-5.0083-1.8151-.1268-.0458-.1549,0-.2535.3737Z" fill="#039"/><path id="logo-loader-s-path6" d="M73.8684,20.8204c-.1056.2212-.1761.4119-.162.4271.0212.0153.9932.6101,2.1766,1.327c1.1764.7169,2.1625,1.327,2.1907,1.3576.0563.0686-.7467,1.6625-.8312,1.6397-.0352-.0077-.6903-.3966-1.4581-.8618-1.4158-.8695-1.7046-.9839-2.1836-.8847-.317.061-.7749.3966-.9932.7245-.5142.7474-.641,2.8981-.3381,5.4987.0493.389.0634.4195.2254.3966.0986-.0153.1831-.0381.1902-.0458.007-.0076-.0212-.1525-.0705-.3203-.0493-.183-.0845-.8465-.0845-1.7464c0-1.2889.0141-1.5101.155-1.9906.1901-.6406.3944-.9914.7255-1.2355.4367-.3203.7607-.2288,2.1695.633.6622.4042,1.2116.7779,1.2116.8161c0,.0457-.472,1.0219-1.0566,2.1812-.5776,1.1592-1.0566,2.1278-1.0566,2.1583c0,.0228.1127.3203.2536.6482l.2465.5949.3663-.7169c.1972-.3966,1.0566-2.1202,1.916-3.8285l1.5567-3.0964.5565.328c.3028.183.5846.3126.6128.2974.1127-.0763.3451-.6635.2888-.7169-.0282-.0381-1.4511-.9076-3.1557-1.9448s-3.1346-1.9218-3.1839-1.96c-.0634-.0534-.1338.0382-.2677.3203Z" fill="#039"/><path id="logo-loader-s-path7" d="M21.3704,23.5352c-1.7187,1.144-3.1416,2.0973-3.1627,2.1202-.0493.0458.317.7322.3874.7245.0282,0,1.0143-.6482,2.1977-1.4338l2.1484-1.4337.4367.8084c.2395.4423.4156.8313.3875.8618-.0282.0228-.6692.4576-1.4229.9609-1.6342,1.083-1.7751,1.2431-1.8174,2.0744-.0211.4271,0,.5949.1268.8771.3945.877,1.7047,1.8608,3.9658,2.9667l.5494.2669.0634-.1906c.0423-.1068.0704-.206.0704-.2212c0-.0076-.1056-.0458-.2394-.0687-.2818-.061-1.5779-.7626-2.071-1.1211-.5212-.3889-1.1059-1.0295-1.3172-1.449-.162-.3203-.1902-.4576-.162-.7931.0211-.2212.0845-.4881.1409-.5873.0986-.1678,2.5006-1.8151,2.6344-1.8151.0352,0,.5706.9304,1.1904,2.0668.6199,1.1363,1.1764,2.0896,1.2327,2.1278.0564.0305.3522.0762.6551.1068l.5424.0533-.3029-.5567c-.169-.3051-1.0918-1.9905-2.0498-3.7446-.965-1.7541-1.7398-3.2032-1.7257-3.2108.014-.0152.2747-.1906.5776-.3889l.5494-.3585-.155-.2745c-.0845-.1602-.1902-.3203-.2324-.3661-.0564-.061-.9369.4881-3.198,1.9981Z" fill="#039"/><path id="logo-loader-s-path8" d="M80.4971,24.9235c-.0986.1525-.1832.3203-.1972.366-.0141.0687,2.895,2.2422,3.0077,2.2422.0141,0,.1268-.1525.2466-.3432l.2183-.3355-1.1481-.8313c-.634-.4576-1.3313-.9533-1.5497-1.1059l-.4086-.2821-.169.2898Z" fill="#039"/><path id="logo-loader-s-path9" d="M16.5587,27.1734c-.7607.6406-1.3736,1.1821-1.3524,1.2126.0141.0305-.0141.0458-.0634.0229-.0493-.0153-.31.183-.5706.4423l-.479.4805.3875.1983.3803.2059.3874-.3585c.6974-.6406,1.3173-1.1134,1.3807-1.0372.3099.3585,1.9089,2.8066,1.8596,2.8524-1.437,1.3804-2.0076,1.9142-2.0216,1.899-.0071-.0153-.4861-.6254-1.0637-1.3499-.6833-.8695-1.1341-1.3728-1.3102-1.4643-.6832-.3813-1.7469,0-2.2329.8084-.3029.4805-.2959.8084.007,1.2965.2748.45.8312.7932,1.282.7932.4015,0,.9228-.1831,1.3314-.4576.1901-.1297.3662-.2136.3874-.1754.0281.0305.2536.3126.5001.6177l.4438.5567-.3593.3966c-.2043.2212-.3663.4424-.3663.4957c0,.267.9791.5415,2.0287.572.5072.0153.5987-.0076.6833-.1296.1056-.1526.1338-.1144-.5213-.961l-.2113-.2745l1.0073-.961l1.0073-.9609.9227,1.3423c.7819,1.1439.9087,1.3651.8101,1.4261-.31.2059-.5917.5339-.7326.8466-.2606.5948-.0986,1.3956.4367,2.0439.31.3889.7185.5338,1.3807.4881.5564-.0382.9227-.1831,1.3735-.5415.1973-.1602.5917-.7169.5424-.7703-.0845-.0839-.8453-.5186-.8664-.4957-.007.0152-.1057.2212-.2113.4499-.1127.2288-.2959.5339-.4156.6636-.5424.6177-1.3172.0381-1.3172-.9915c0-1.0524,1.3101-1.5787,3.0923-1.2355.6832.1297,1.7187.4576,1.9934.633.2113.1373.3381.0763.2254-.1144-.1902-.3279-2.5992-1.1287-3.684-1.2279l-.6058-.0533-2.3033-3.3557c-1.268-1.8456-2.3105-3.3709-2.3105-3.3938s.2395-.2441.5283-.4805l.5283-.4423-.2254-.3432c-.1197-.183-.2395-.3356-.2606-.3279-.0211,0-.6621.5262-1.4229,1.1592Zm-3.1486,3.5768c.1338.1373.4508.511.6973.8237s.479.5949.5072.6177c.1268.0992-.486.3966-.8664.4347-.324.0229-.4297,0-.634-.1525-.4156-.305-.5776-.6406-.5424-1.1211.0212-.3508.0634-.4499.2536-.633.1198-.1144.2466-.2135.2747-.2135.0353,0,.1761.1144.31.244Z" fill="#039"/><path id="logo-loader-s-path10" d="M83.6181,27.3259c-.0986.1296-.1972.2822-.2254.3356-.0282.0457.1338.244.4015.4804l.4508.3966-.6339.8694c-.3522.4805-.6622.8847-.6833.9s-.7819-.5034-1.6906-1.1516c-1.0706-.7627-1.6976-1.1669-1.7962-1.1516-.0915.0152-.2042.1372-.2888.3279-.2042.4423-.2042,2.0668,0,2.5167.2395.5263.3874.4653.8594-.3355.2254-.3813.4297-.694.4579-.694s.4649.2898.965.6482l.9227.6559-1.1059,1.5024c-.6057.8237-1.1974,1.6321-1.3172,1.7923l-.2113.2821.1268.5568c.0634.2974.1409.5948.169.6406.0353.0686.9017-1.0525,2.5147-3.2565c1.3525-1.8456,2.4795-3.3557,2.5077-3.3557.0704,0,.5212.4118,1.2045,1.1059l.5706.5719-.1339.1678c-.0704.0915-1.1763,1.4033-2.4442,2.9057-2.2964,2.7227-2.3175,2.7456-2.2682,3.0201.0916.5796.1902,1.083.2043,1.0601.0141-.0152,1.2256-1.4567,2.7049-3.2031l2.6837-3.1803.5001.5034.5072.5109.2677-.3126.2747-.3051-1.4511-1.4795c-1.1622-1.1898-3.7262-3.5769-3.8319-3.5769-.0141,0-.1127.1144-.2113.2517Z" fill="#039"/><g id="logo-loader-s-g1" transform="translate(0-2)"><path id="logo-loader-s-path11" d="M50.1452,33.7701c-.2536.2974-1.3243,3.5692-1.916,5.8571-.7537,2.8829-1.5919,6.902-2.2893,10.9899-.2324,1.3498-.2676,1.6854-.2113,1.9905.1339.7855.4508,1.4109,1.0003,1.9676.7959.8161,1.923,1.1821,3.6135,1.1821c2.5781,0,4.4307-1.2355,4.5293-3.0201.0423-.8313-1.3947-8.0307-2.5288-12.66-1.0284-4.187-1.7258-6.4444-1.9934-6.4444-.0493,0-.1409.061-.2043.1373Z" fill="#039"/><path id="logo-loader-s-path12" d="M74.2564,43.4637c-2.0005.9076-6.7763,3.4853-10.3898,5.6131-1.2257.7169-4.4166,2.6464-4.9167,2.9667-.3029.1907-.5636.3509-.5847.3509-.0845,0-.9016.6406-1.0988.8618-.1198.1372-.31.4499-.4156.7016-.1761.389-.2043.5491-.2043,1.0677.007,1.3118.641,2.5015,1.9653,3.6379c1.5355,1.3346,3.212,1.6397,4.7335.8694.6551-.3356.8241-.5034,2.247-2.2575.2536-.3127.5988-.7397.7749-.9533.1761-.2059.5917-.7245.9227-1.144.324-.4194.8664-1.1058,1.1975-1.5253c2.5781-3.2794,5.1632-7.0469,6.5086-9.4797.6762-1.2279.5917-1.3118-.7396-.7093Z" fill="#039"/><path id="logo-loader-s-path13" d="M24.7161,43.2955c-.0987.1067-.0353.2898.3522.999c1.5215,2.8142,4.4799,6.9554,8.5513,12.0042c2.2118,2.7379,2.4443,2.9896,3.1276,3.3404.6551.3356,1.12.4576,1.7821.4576c1.289-.0076,2.5851-.7017,3.7333-2.021c1.761-2.0134,1.6553-4.2251-.2606-5.392-.2184-.1296-.8524-.5186-1.4159-.8618-5.1632-3.1726-12.3621-7.1384-15.0177-8.2824-.7255-.3127-.7819-.3279-.8523-.244Z" fill="#039"/><path id="logo-loader-s-path14" d="M64.4157,61.1266c-1.1834.3508-2.0991,1.4109-2.4583,2.8599-.162.6559-.162,1.9906-.0071,2.6541.3945,1.6168,1.444,2.6464,3.0148,2.9591l.5917.122l2.2541-.3585c7.051-1.1058,12.489-2.2803,16.3068-3.5082c1.12-.366,1.2679-.4347,1.2679-.6177c0-.1449-.1902-.2212-1.444-.572-3.4516-.9609-10.735-2.4252-16.7858-3.3862-1.8666-.2898-2.1907-.3127-2.7401-.1525Z" fill="#039"/><path id="logo-loader-s-path15" d="M32.9078,61.325c-7.537,1.266-15.5108,2.9362-17.624,3.6988-.5705.2059-.641.2517-.5635.3813.0845.145.31.2365,1.4229.5949c3.6629,1.1592,8.7416,2.2498,15.5883,3.3252c2.6485.4118,3.043.4423,3.677.2669c1.4792-.4042,2.4513-1.4795,2.7541-3.0277.148-.755.0987-2.2193-.0986-2.8066-.4367-1.3346-1.1763-2.1812-2.2047-2.5244-.5917-.1982-1.3666-.1754-2.9515.0916Z" fill="#039"/><path id="logo-loader-s-path16" d="M61.2602,71.2013c-.0775.0152-.317.0686-.5283.1144-1.3172.2898-3.0148,1.7388-3.6558,3.1192-.6058,1.3042-.5565,2.4176.1409,3.3557.3451.4652.4156.511,4.3602,2.8828c4.642,2.7913,10.6082,6.0478,12.8764,7.024c1.1481.4958,1.2468.4271.7326-.5338-1.6061-3.0049-4.9801-7.7104-9.3756-13.0642-1.8525-2.2575-1.9089-2.3109-2.9021-2.6693-.5001-.1831-1.3595-.2975-1.6483-.2288Z" fill="#039"/><path id="logo-loader-s-path17" d="M38.0854,71.6052c-.9369.1677-1.6342.5796-2.3316,1.3727-.6128.7017-3.691,4.5378-4.325,5.3844-.2465.3355-.4719.6253-.4931.6482-.1197.0992-2.1695,2.9286-2.9584,4.0802-1.4793,2.143-3.0994,4.8428-3.0994,5.1555c0,.0839.0423.1678.0916.1907.3804.1525,6.1776-2.8905,11.848-6.2233c1.93-1.1363,2.6344-1.5558,4.0432-2.4328.7537-.4652,1.3877-.8466,1.4158-.8466s.2747-.2211.5424-.4957c.3452-.3432.5424-.6101.6551-.8923.5917-1.4872-.155-3.3556-1.93-4.8047-1.1271-.9228-2.3598-1.327-3.4586-1.1363Z" fill="#039"/><path id="logo-loader-s-path18" d="M49.2502,75.7007c-1.2045.1602-2.2822.6483-2.8669,1.3042-.4437.4957-.6903.9914-.8382,1.6931-.1057.5186-.1057.5262.1831,2.1506c1.268,7.1537,2.557,12.477,3.8461,15.8861.324.8541.4719,1.1134.6269,1.1134.2747,0,1.2397-3.3251,2.2822-7.8248.8946-3.859,2.1907-10.5093,2.1907-11.2033-.0141-1.7541-1.7892-3.043-4.2968-3.1269-.4861-.0152-.9932-.0076-1.1271.0076Z" fill="#039"/></g><path id="logo-loader-s-path19" d="M48.6867,58.2283c-2.9092.5033-5.3816,2.4481-6.2762,4.9572-.3381.9304-.4367,1.6245-.3945,2.6312.0705,1.7007.6481,3.1116,1.7892,4.3928c1.1623,1.3042,2.7683,2.2117,4.5997,2.593.9721.1983,2.6063.1831,3.5713-.0381c4.5504-1.0372,7.2412-5.2242,5.9522-9.2662-.5072-1.5863-1.6413-3.0582-3.0923-4.0116-1.6835-1.1058-4.1137-1.6015-6.1494-1.2583Z" transform="translate(0-2)" fill="#039"/>
<script><![CDATA[
!function(t,n){"object"==typeof exports&&"undefined"!=typeof module?module.exports=n():"function"==typeof __SVGATOR_DEFINE__&&__SVGATOR_DEFINE__.amd?__SVGATOR_DEFINE__(n):((t="undefined"!=typeof globalThis?globalThis:t||self).__SVGATOR_PLAYER__=t.__SVGATOR_PLAYER__||{},t.__SVGATOR_PLAYER__["5c7f360c"]=n())}(this,(function(){"use strict";function t(t,n){var e=Object.keys(t);if(Object.getOwnPropertySymbols){var r=Object.getOwnPropertySymbols(t);n&&(r=r.filter((function(n){return Object.getOwnPropertyDescriptor(t,n).enumerable}))),e.push.apply(e,r)}return e}function n(n){for(var e=1;e<arguments.length;e++){var r=null!=arguments[e]?arguments[e]:{};e%2?t(Object(r),!0).forEach((function(t){o(n,t,r[t])})):Object.getOwnPropertyDescriptors?Object.defineProperties(n,Object.getOwnPropertyDescriptors(r)):t(Object(r)).forEach((function(t){Object.defineProperty(n,t,Object.getOwnPropertyDescriptor(r,t))}))}return n}function e(t){return(e="function"==typeof Symbol&&"symbol"==typeof Symbol.iterator?function(t){return typeof t}:function(t){return t&&"function"==typeof Symbol&&t.constructor===Symbol&&t!==Symbol.prototype?"symbol":typeof t})(t)}function r(t,n){if(!(t instanceof n))throw new TypeError("Cannot call a class as a function")}function i(t,n){for(var e=0;e<n.length;e++){var r=n[e];r.enumerable=r.enumerable||!1,r.configurable=!0,"value"in r&&(r.writable=!0),Object.defineProperty(t,r.key,r)}}function u(t,n,e){return n&&i(t.prototype,n),e&&i(t,e),t}function o(t,n,e){return n in t?Object.defineProperty(t,n,{value:e,enumerable:!0,configurable:!0,writable:!0}):t[n]=e,t}function a(t){return(a=Object.setPrototypeOf?Object.getPrototypeOf:function(t){return t.__proto__||Object.getPrototypeOf(t)})(t)}function l(t,n){return(l=Object.setPrototypeOf||function(t,n){return t.__proto__=n,t})(t,n)}function s(){if("undefined"==typeof Reflect||!Reflect.construct)return!1;if(Reflect.construct.sham)return!1;if("function"==typeof Proxy)return!0;try{return Boolean.prototype.valueOf.call(Reflect.construct(Boolean,[],(function(){}))),!0}catch(t){return!1}}function f(t,n,e){return(f=s()?Reflect.construct:function(t,n,e){var r=[null];r.push.apply(r,n);var i=new(Function.bind.apply(t,r));return e&&l(i,e.prototype),i}).apply(null,arguments)}function c(t,n){if(n&&("object"==typeof n||"function"==typeof n))return n;if(void 0!==n)throw new TypeError("Derived constructors may only return object or undefined");return function(t){if(void 0===t)throw new ReferenceError("this hasn't been initialised - super() hasn't been called");return t}(t)}function h(t,n,e){return(h="undefined"!=typeof Reflect&&Reflect.get?Reflect.get:function(t,n,e){var r=function(t,n){for(;!Object.prototype.hasOwnProperty.call(t,n)&&null!==(t=a(t)););return t}(t,n);if(r){var i=Object.getOwnPropertyDescriptor(r,n);return i.get?i.get.call(e):i.value}})(t,n,e||t)}function v(t){return function(t){if(Array.isArray(t))return y(t)}(t)||function(t){if("undefined"!=typeof Symbol&&null!=t[Symbol.iterator]||null!=t["@@iterator"])return Array.from(t)}(t)||function(t,n){if(!t)return;if("string"==typeof t)return y(t,n);var e=Object.prototype.toString.call(t).slice(8,-1);"Object"===e&&t.constructor&&(e=t.constructor.name);if("Map"===e||"Set"===e)return Array.from(t);if("Arguments"===e||/^(?:Ui|I)nt(?:8|16|32)(?:Clamped)?Array$/.test(e))return y(t,n)}(t)||function(){throw new TypeError("Invalid attempt to spread non-iterable instance.\nIn order to be iterable, non-array objects must have a [Symbol.iterator]() method.")}()}function y(t,n){(null==n||n>t.length)&&(n=t.length);for(var e=0,r=new Array(n);e<n;e++)r[e]=t[e];return r}Number.isInteger||(Number.isInteger=function(t){return"number"==typeof t&&isFinite(t)&&Math.floor(t)===t}),Number.EPSILON||(Number.EPSILON=2220446049250313e-31);var g=p(Math.pow(10,-6));function p(t){var n=arguments.length>1&&void 0!==arguments[1]?arguments[1]:6;if(Number.isInteger(t))return t;var e=Math.pow(10,n);return Math.round((+t+Number.EPSILON)*e)/e}function d(t,n){var e=arguments.length>2&&void 0!==arguments[2]?arguments[2]:g;return Math.abs(t-n)<e}var m=Math.PI/180;function b(t){return t}function w(t,n,e){var r=1-e;return 3*e*r*(t*r+n*e)+e*e*e}function A(){var t=arguments.length>0&&void 0!==arguments[0]?arguments[0]:0,n=arguments.length>1&&void 0!==arguments[1]?arguments[1]:0,e=arguments.length>2&&void 0!==arguments[2]?arguments[2]:1,r=arguments.length>3&&void 0!==arguments[3]?arguments[3]:1;return t<0||t>1||e<0||e>1?null:d(t,n)&&d(e,r)?b:function(i){if(i<=0)return t>0?i*n/t:0===n&&e>0?i*r/e:0;if(i>=1)return e<1?1+(i-1)*(r-1)/(e-1):1===e&&t<1?1+(i-1)*(n-1)/(t-1):1;for(var u,o=0,a=1;o<a;){var l=w(t,e,u=(o+a)/2);if(d(i,l))break;l<i?o=u:a=u}return w(n,r,u)}}function _(){return 1}function x(t){return 1===t?1:0}function k(){var t=arguments.length>0&&void 0!==arguments[0]?arguments[0]:1,n=arguments.length>1&&void 0!==arguments[1]?arguments[1]:0;if(1===t){if(0===n)return x;if(1===n)return _}var e=1/t;return function(t){return t>=1?1:(t+=n*e)-t%e}}var S=Math.sin,O=Math.cos,j=Math.acos,E=Math.asin,M=Math.tan,P=Math.atan2,I=Math.PI/180,R=180/Math.PI,F=Math.sqrt,N=function(){function t(){var n=arguments.length>0&&void 0!==arguments[0]?arguments[0]:1,e=arguments.length>1&&void 0!==arguments[1]?arguments[1]:0,i=arguments.length>2&&void 0!==arguments[2]?arguments[2]:0,u=arguments.length>3&&void 0!==arguments[3]?arguments[3]:1,o=arguments.length>4&&void 0!==arguments[4]?arguments[4]:0,a=arguments.length>5&&void 0!==arguments[5]?arguments[5]:0;r(this,t),this.m=[n,e,i,u,o,a],this.i=null,this.w=null,this.s=null}return u(t,[{key:"determinant",get:function(){var t=this.m;return t[0]*t[3]-t[1]*t[2]}},{key:"isIdentity",get:function(){if(null===this.i){var t=this.m;this.i=1===t[0]&&0===t[1]&&0===t[2]&&1===t[3]&&0===t[4]&&0===t[5]}return this.i}},{key:"point",value:function(t,n){var e=this.m;return{x:e[0]*t+e[2]*n+e[4],y:e[1]*t+e[3]*n+e[5]}}},{key:"translateSelf",value:function(){var t=arguments.length>0&&void 0!==arguments[0]?arguments[0]:0,n=arguments.length>1&&void 0!==arguments[1]?arguments[1]:0;if(!t&&!n)return this;var e=this.m;return e[4]+=e[0]*t+e[2]*n,e[5]+=e[1]*t+e[3]*n,this.w=this.s=this.i=null,this}},{key:"rotateSelf",value:function(){var t=arguments.length>0&&void 0!==arguments[0]?arguments[0]:0;if(t%=360){var n=S(t*=I),e=O(t),r=this.m,i=r[0],u=r[1];r[0]=i*e+r[2]*n,r[1]=u*e+r[3]*n,r[2]=r[2]*e-i*n,r[3]=r[3]*e-u*n,this.w=this.s=this.i=null}return this}},{key:"scaleSelf",value:function(){var t=arguments.length>0&&void 0!==arguments[0]?arguments[0]:1,n=arguments.length>1&&void 0!==arguments[1]?arguments[1]:1;if(1!==t||1!==n){var e=this.m;e[0]*=t,e[1]*=t,e[2]*=n,e[3]*=n,this.w=this.s=this.i=null}return this}},{key:"skewSelf",value:function(t,n){if(n%=360,(t%=360)||n){var e=this.m,r=e[0],i=e[1],u=e[2],o=e[3];t&&(t=M(t*I),e[2]+=r*t,e[3]+=i*t),n&&(n=M(n*I),e[0]+=u*n,e[1]+=o*n),this.w=this.s=this.i=null}return this}},{key:"resetSelf",value:function(){var t=arguments.length>0&&void 0!==arguments[0]?arguments[0]:1,n=arguments.length>1&&void 0!==arguments[1]?arguments[1]:0,e=arguments.length>2&&void 0!==arguments[2]?arguments[2]:0,r=arguments.length>3&&void 0!==arguments[3]?arguments[3]:1,i=arguments.length>4&&void 0!==arguments[4]?arguments[4]:0,u=arguments.length>5&&void 0!==arguments[5]?arguments[5]:0,o=this.m;return o[0]=t,o[1]=n,o[2]=e,o[3]=r,o[4]=i,o[5]=u,this.w=this.s=this.i=null,this}},{key:"recomposeSelf",value:function(){var t=arguments.length>0&&void 0!==arguments[0]?arguments[0]:null,n=arguments.length>1&&void 0!==arguments[1]?arguments[1]:null,e=arguments.length>2&&void 0!==arguments[2]?arguments[2]:null,r=arguments.length>3&&void 0!==arguments[3]?arguments[3]:null,i=arguments.length>4&&void 0!==arguments[4]?arguments[4]:null;return this.isIdentity||this.resetSelf(),t&&(t.x||t.y)&&this.translateSelf(t.x,t.y),n&&this.rotateSelf(n),e&&(e.x&&this.skewSelf(e.x,0),e.y&&this.skewSelf(0,e.y)),!r||1===r.x&&1===r.y||this.scaleSelf(r.x,r.y),i&&(i.x||i.y)&&this.translateSelf(i.x,i.y),this}},{key:"decompose",value:function(){var t=arguments.length>0&&void 0!==arguments[0]?arguments[0]:0,n=arguments.length>1&&void 0!==arguments[1]?arguments[1]:0,e=this.m,r=e[0]*e[0]+e[1]*e[1],i=[[e[0],e[1]],[e[2],e[3]]],u=F(r);if(0===u)return{origin:{x:p(e[4]),y:p(e[5])},translate:{x:p(t),y:p(n)},scale:{x:0,y:0},skew:{x:0,y:0},rotate:0};i[0][0]/=u,i[0][1]/=u;var o=e[0]*e[3]-e[1]*e[2]<0;o&&(u=-u);var a=i[0][0]*i[1][0]+i[0][1]*i[1][1];i[1][0]-=i[0][0]*a,i[1][1]-=i[0][1]*a;var l=F(i[1][0]*i[1][0]+i[1][1]*i[1][1]);if(0===l)return{origin:{x:p(e[4]),y:p(e[5])},translate:{x:p(t),y:p(n)},scale:{x:p(u),y:0},skew:{x:0,y:0},rotate:0};i[1][0]/=l,i[1][1]/=l,a/=l;var s=0;return i[1][1]<0?(s=j(i[1][1])*R,i[0][1]<0&&(s=360-s)):s=E(i[0][1])*R,o&&(s=-s),a=P(a,F(i[0][0]*i[0][0]+i[0][1]*i[0][1]))*R,o&&(a=-a),{origin:{x:p(e[4]),y:p(e[5])},translate:{x:p(t),y:p(n)},scale:{x:p(u),y:p(l)},skew:{x:p(a),y:0},rotate:p(s)}}},{key:"clone",value:function(){var t=this.m;return new this.constructor(t[0],t[1],t[2],t[3],t[4],t[5])}},{key:"toString",value:function(){var t=arguments.length>0&&void 0!==arguments[0]?arguments[0]:" ";if(null===this.s){var n=this.m.map((function(t){return p(t)}));1===n[0]&&0===n[1]&&0===n[2]&&1===n[3]?this.s="translate("+n[4]+t+n[5]+")":this.s="matrix("+n.join(t)+")"}return this.s}}],[{key:"create",value:function(t){return t?Array.isArray(t)?f(this,v(t)):t instanceof this?t.clone():(new this).recomposeSelf(t.origin,t.rotate,t.skew,t.scale,t.translate):new this}}]),t}();function T(t,n,e){return t>=.5?e:n}function q(t,n,e){return 0===t||n===e?n:t*(e-n)+n}function B(t,n,e){var r=q(t,n,e);return r<=0?0:r}function D(t,n,e){var r=q(t,n,e);return r<=0?0:r>=1?1:r}function L(t,n,e){return 0===t?n:1===t?e:{x:q(t,n.x,e.x),y:q(t,n.y,e.y)}}function C(t,n,e){var r=function(t,n,e){return Math.round(q(t,n,e))}(t,n,e);return r<=0?0:r>=255?255:r}function V(t,n,e){return 0===t?n:1===t?e:{r:C(t,n.r,e.r),g:C(t,n.g,e.g),b:C(t,n.b,e.b),a:q(t,null==n.a?1:n.a,null==e.a?1:e.a)}}function G(t,n){for(var e=[],r=0;r<t;r++)e.push(n);return e}function z(t,n){if(--n<=0)return t;var e=(t=Object.assign([],t)).length;do{for(var r=0;r<e;r++)t.push(t[r])}while(--n>0);return t}var Y,$=function(){function t(n){r(this,t),this.list=n,this.length=n.length}return u(t,[{key:"setAttribute",value:function(t,n){for(var e=this.list,r=0;r<this.length;r++)e[r].setAttribute(t,n)}},{key:"removeAttribute",value:function(t){for(var n=this.list,e=0;e<this.length;e++)n[e].removeAttribute(t)}},{key:"style",value:function(t,n){for(var e=this.list,r=0;r<this.length;r++)e[r].style[t]=n}}]),t}(),U=/-./g,Q=function(t,n){return n.toUpperCase()};function H(t){return"function"==typeof t?t:T}function J(t){return t?"function"==typeof t?t:Array.isArray(t)?function(t){var n=arguments.length>1&&void 0!==arguments[1]?arguments[1]:b;if(!Array.isArray(t))return n;switch(t.length){case 1:return k(t[0])||n;case 2:return k(t[0],t[1])||n;case 4:return A(t[0],t[1],t[2],t[3])||n}return n}(t,null):function(t,n){var e=arguments.length>2&&void 0!==arguments[2]?arguments[2]:b;switch(t){case"linear":return b;case"steps":return k(n.steps||1,n.jump||0)||e;case"bezier":case"cubic-bezier":return A(n.x1||0,n.y1||0,n.x2||0,n.y2||0)||e}return e}(t.type,t.value,null):null}function Z(t,n,e){var r=arguments.length>3&&void 0!==arguments[3]&&arguments[3],i=n.length-1;if(t<=n[0].t)return r?[0,0,n[0].v]:n[0].v;if(t>=n[i].t)return r?[i,1,n[i].v]:n[i].v;var u,o=n[0],a=null;for(u=1;u<=i;u++){if(!(t>n[u].t)){a=n[u];break}o=n[u]}return null==a?r?[i,1,n[i].v]:n[i].v:o.t===a.t?r?[u,1,a.v]:a.v:(t=(t-o.t)/(a.t-o.t),o.e&&(t=o.e(t)),r?[u,t,e(t,o.v,a.v)]:e(t,o.v,a.v))}function K(t,n){var e=arguments.length>2&&void 0!==arguments[2]?arguments[2]:null;return t&&t.length?"function"!=typeof n?null:("function"!=typeof e&&(e=null),function(r){var i=Z(r,t,n);return null!=i&&e&&(i=e(i)),i}):null}function W(t,n){return t.t-n.t}function X(t,n,r,i,u){var o,a="@"===r[0],l="#"===r[0],s=Y[r],f=T;switch(a?(o=r.substr(1),r=o.replace(U,Q)):l&&(r=r.substr(1)),e(s)){case"function":if(f=s(i,u,Z,J,r,a,n,t),l)return f;break;case"string":f=K(i,H(s));break;case"object":if((f=K(i,H(s.i),s.f))&&"function"==typeof s.u)return s.u(n,f,r,a,t)}return f?function(t,n,e){if(arguments.length>3&&void 0!==arguments[3]&&arguments[3])return t instanceof $?function(r){return t.style(n,e(r))}:function(r){return t.style[n]=e(r)};if(Array.isArray(n)){var r=n.length;return function(i){var u=e(i);if(null==u)for(var o=0;o<r;o++)t[o].removeAttribute(n);else for(var a=0;a<r;a++)t[a].setAttribute(n,u)}}return function(r){var i=e(r);null==i?t.removeAttribute(n):t.setAttribute(n,i)}}(n,r,f,a):null}function tt(t,n,r,i){if(!i||"object"!==e(i))return null;var u=null,o=null;return Array.isArray(i)?o=function(t){if(!t||!t.length)return null;for(var n=0;n<t.length;n++)t[n].e&&(t[n].e=J(t[n].e));return t.sort(W)}(i):(o=i.keys,u=i.data||null),o?X(t,n,r,o,u):null}function nt(t,n,e){if(!e)return null;var r=[];for(var i in e)if(e.hasOwnProperty(i)){var u=tt(t,n,i,e[i]);u&&r.push(u)}return r.length?r:null}function et(t,n){if(!n.settings.duration||n.settings.duration<0)return null;var e,r,i,u,o,a=function(t,n){if(!n)return null;var e=[];if(Array.isArray(n))for(var r=n.length,i=0;i<r;i++){var u=n[i];if(2===u.length){var o=null;if("string"==typeof u[0])o=t.getElementById(u[0]);else if(Array.isArray(u[0])){o=[];for(var a=0;a<u[0].length;a++)if("string"==typeof u[0][a]){var l=t.getElementById(u[0][a]);l&&o.push(l)}o=o.length?1===o.length?o[0]:new $(o):null}if(o){var s=nt(t,o,u[1]);s&&(e=e.concat(s))}}}else for(var f in n)if(n.hasOwnProperty(f)){var c=t.getElementById(f);if(c){var h=nt(t,c,n[f]);h&&(e=e.concat(h))}}return e.length?e:null}(t,n.elements);return a?(e=a,r=n.settings,i=r.duration,u=e.length,o=null,function(t,n){var a=r.iterations||1/0,l=(r.alternate&&a%2==0)^r.direction>0?i:0,s=t%i,f=1+(t-s)/i;n*=r.direction,r.alternate&&f%2==0&&(n=-n);var c=!1;if(f>a)s=l,c=!0,-1===r.fill&&(s=r.direction>0?0:i);else if(n<0&&(s=i-s),s===o)return!1;o=s;for(var h=0;h<u;h++)e[h](s);return c}):null}function rt(t,n){if(Y=n,!t||!t.root||!Array.isArray(t.animations))return null;var e=function(t){for(var n=document.getElementsByTagName("svg"),e=0;e<n.length;e++)if(n[e].id===t.root&&!n[e].svgatorAnimation)return n[e].svgatorAnimation=!0,n[e];return null}(t);if(!e)return null;var r=t.animations.map((function(t){return et(e,t)})).filter((function(t){return!!t}));return r.length?{svg:e,animations:r,animationSettings:t.animationSettings,options:t.options||void 0}:null}function it(t){return+("0x"+(t.replace(/[^0-9a-fA-F]+/g,"")||27))}function ut(t,n,e){return!t||!e||n>t.length?t:t.substring(0,n)+ut(t.substring(n+1),e,e)}function ot(t){var n=arguments.length>1&&void 0!==arguments[1]?arguments[1]:27;return!t||t%n?t%n:ot(t/n,n)}function at(t,n,e){if(t&&t.length){var r=it(e),i=it(n),u=ot(r)+5,o=ut(t,ot(r,5),u);return o=o.replace(/\x7c$/g,"==").replace(/\x2f$/g,"="),o=function(t,n,e){var r=+("0x"+t.substring(0,4));t=t.substring(4);for(var i=n%r+e%27,u=[],o=0;o<t.length;o+=2)if("|"!==t[o]){var a=+("0x"+t[o]+t[o+1])-i;u.push(a)}else{var l=+("0x"+t.substring(o+1,o+1+4))-i;o+=3,u.push(l)}return String.fromCharCode.apply(String,u)}(o=(o=atob(o)).replace(/[\x41-\x5A]/g,""),i,r),o=JSON.parse(o)}}var lt=[{key:"alternate",def:!1},{key:"fill",def:1},{key:"iterations",def:0},{key:"direction",def:1},{key:"speed",def:1},{key:"fps",def:100}],st=function(){function t(n,e){var i=this,u=arguments.length>2&&void 0!==arguments[2]?arguments[2]:null;r(this,t),this._id=0,this._running=!1,this._rollingBack=!1,this._animations=n,this._settings=e,(!u||u<"2022-05-02")&&delete this._settings.speed,lt.forEach((function(t){i._settings[t.key]=i._settings[t.key]||t.def})),this.duration=e.duration,this.offset=e.offset||0,this.rollbackStartOffset=0}return u(t,[{key:"alternate",get:function(){return this._settings.alternate}},{key:"fill",get:function(){return this._settings.fill}},{key:"iterations",get:function(){return this._settings.iterations}},{key:"direction",get:function(){return this._settings.direction}},{key:"speed",get:function(){return this._settings.speed}},{key:"fps",get:function(){return this._settings.fps}},{key:"maxFiniteDuration",get:function(){return this.iterations>0?this.iterations*this.duration:this.duration}},{key:"_apply",value:function(t){for(var n=arguments.length>1&&void 0!==arguments[1]?arguments[1]:{},e=this._animations,r=e.length,i=0,u=0;u<r;u++)n[u]?i++:(n[u]=e[u](t,1),n[u]&&i++);return i}},{key:"_rollback",value:function(t){var n=this,e=1/0,r=null;this.rollbackStartOffset=t,this._rollingBack=!0,this._running=!0;this._id=window.requestAnimationFrame((function i(u){if(n._rollingBack){null==r&&(r=u);var o=Math.round(t-(u-r)*n.speed);if(o>n.duration&&e!==1/0){var a=!!n.alternate&&o/n.duration%2>1,l=o%n.duration;o=(l+=a?n.duration:0)||n.duration}var s=(n.fps?1e3/n.fps:0)*n.speed,f=Math.max(0,o);f<=e-s&&(n.offset=f,e=f,n._apply(f));var c=n.iterations>0&&-1===n.fill&&o>=n.maxFiniteDuration;(o<=0||n.offset<o||c)&&n.stop(),n._id=window.requestAnimationFrame(i)}}))}},{key:"_start",value:function(){var t=this,n=arguments.length>0&&void 0!==arguments[0]?arguments[0]:0,e=-1/0,r=null,i={};this._running=!0;var u=function u(o){null==r&&(r=o);var a=Math.round((o-r)*t.speed+n),l=(t.fps?1e3/t.fps:0)*t.speed;if(a>=e+l&&!t._rollingBack&&(t.offset=a,e=a,t._apply(a,i)===t._animations.length))return void t.pause(!0);t._id=window.requestAnimationFrame(u)};this._id=window.requestAnimationFrame(u)}},{key:"_pause",value:function(){this._id&&window.cancelAnimationFrame(this._id),this._running=!1}},{key:"play",value:function(){if(!this._running)return this._rollingBack?this._rollback(this.offset):this._start(this.offset)}},{key:"stop",value:function(){this._pause(),this.offset=0,this.rollbackStartOffset=0,this._rollingBack=!1,this._apply(0)}},{key:"reachedToEnd",value:function(){return this.iterations>0&&this.offset>=this.iterations*this.duration}},{key:"restart",value:function(){var t=arguments.length>0&&void 0!==arguments[0]&&arguments[0];this.stop(t),this.play(t)}},{key:"pause",value:function(){this._pause()}},{key:"reverse",value:function(){this.direction=-this.direction}}],[{key:"build",value:function(t,n){delete t.animationSettings,t.options=at(t.options,t.root,"5c7f360c"),t.animations.map((function(n){n.settings=at(n.s,t.root,"5c7f360c"),delete n.s,t.animationSettings||(t.animationSettings=n.settings)}));var e=t.version;if(!(t=rt(t,n)))return null;var r=t.options||{},i=new this(t.animations,t.animationSettings,e);return{el:t.svg,options:r,player:i}}},{key:"push",value:function(t){return this.build(t)}},{key:"init",value:function(){var t=this,n=window.__SVGATOR_PLAYER__&&window.__SVGATOR_PLAYER__["5c7f360c"];Array.isArray(n)&&n.splice(0).forEach((function(n){return t.build(n)}))}}]),t}();function ft(t){return p(t)+""}function ct(t){var n=arguments.length>1&&void 0!==arguments[1]?arguments[1]:" ";return t&&t.length?t.map(ft).join(n):""}function ht(t){if(!t)return"transparent";if(null==t.a||t.a>=1){var n=function(t){return 1===(t=parseInt(t).toString(16)).length?"0"+t:t},e=function(t){return t.charAt(0)===t.charAt(1)},r=n(t.r),i=n(t.g),u=n(t.b);return e(r)&&e(i)&&e(u)&&(r=r.charAt(0),i=i.charAt(0),u=u.charAt(0)),"#"+r+i+u}return"rgba("+t.r+","+t.g+","+t.b+","+t.a+")"}function vt(t){return t?"url(#"+t+")":"none"}!function(){for(var t=0,n=["ms","moz","webkit","o"],e=0;e<n.length&&!window.requestAnimationFrame;++e)window.requestAnimationFrame=window[n[e]+"RequestAnimationFrame"],window.cancelAnimationFrame=window[n[e]+"CancelAnimationFrame"]||window[n[e]+"CancelRequestAnimationFrame"];window.requestAnimationFrame||(window.requestAnimationFrame=function(n){var e=Date.now(),r=Math.max(0,16-(e-t)),i=window.setTimeout((function(){n(e+r)}),r);return t=e+r,i},window.cancelAnimationFrame=window.clearTimeout)}();var yt={f:null,i:function(t,n,e){return 0===t?n:1===t?e:{x:B(t,n.x,e.x),y:B(t,n.y,e.y)}},u:function(t,n){return function(e){var r=n(e);t.setAttribute("rx",ft(r.x)),t.setAttribute("ry",ft(r.y))}}},gt={f:null,i:function(t,n,e){return 0===t?n:1===t?e:{width:B(t,n.width,e.width),height:B(t,n.height,e.height)}},u:function(t,n){return function(e){var r=n(e);t.setAttribute("width",ft(r.width)),t.setAttribute("height",ft(r.height))}}};Object.freeze({M:2,L:2,Z:0,H:1,V:1,C:6,Q:4,T:2,S:4,A:7});var pt={},dt=null;function mt(t){var n=function(){if(dt)return dt;if("object"!==("undefined"==typeof document?"undefined":e(document))||!document.createElementNS)return{};var t=document.createElementNS("http://www.w3.org/2000/svg","svg");return t&&t.style?(t.style.position="absolute",t.style.opacity="0.01",t.style.zIndex="-9999",t.style.left="-9999px",t.style.width="1px",t.style.height="1px",dt={svg:t}):{}}().svg;if(!n)return function(t){return null};var r=document.createElementNS(n.namespaceURI,"path");r.setAttributeNS(null,"d",t),r.setAttributeNS(null,"fill","none"),r.setAttributeNS(null,"stroke","none"),n.appendChild(r);var i=r.getTotalLength();return function(t){var n=r.getPointAtLength(i*t);return{x:n.x,y:n.y}}}function bt(t){return pt[t]?pt[t]:pt[t]=mt(t)}function wt(t,n,e,r){if(!t||!r)return!1;var i=["M",t.x,t.y];if(n&&e&&(i.push("C"),i.push(n.x),i.push(n.y),i.push(e.x),i.push(e.y)),n?!e:e){var u=n||e;i.push("Q"),i.push(u.x),i.push(u.y)}return n||e||i.push("L"),i.push(r.x),i.push(r.y),i.join(" ")}function At(t,n,e,r){var i=arguments.length>4&&void 0!==arguments[4]?arguments[4]:1,u=wt(t,n,e,r),o=bt(u);try{return o(i)}catch(t){return null}}function _t(t,n,e){return t+(n-t)*e}function xt(t,n,e){var r=arguments.length>3&&void 0!==arguments[3]&&arguments[3],i={x:_t(t.x,n.x,e),y:_t(t.y,n.y,e)};return r&&(i.a=kt(t,n)),i}function kt(t,n){return Math.atan2(n.y-t.y,n.x-t.x)}function St(t,n,e,r){var i=1-r;return i*i*t+2*i*r*n+r*r*e}function Ot(t,n,e,r){return 2*(1-r)*(n-t)+2*r*(e-n)}function jt(t,n,e,r){var i=arguments.length>4&&void 0!==arguments[4]&&arguments[4],u=At(t,n,null,e,r);return u||(u={x:St(t.x,n.x,e.x,r),y:St(t.y,n.y,e.y,r)}),i&&(u.a=Et(t,n,e,r)),u}function Et(t,n,e,r){return Math.atan2(Ot(t.y,n.y,e.y,r),Ot(t.x,n.x,e.x,r))}function Mt(t,n,e,r,i){var u=i*i;return i*u*(r-t+3*(n-e))+3*u*(t+e-2*n)+3*i*(n-t)+t}function Pt(t,n,e,r,i){var u=1-i;return 3*(u*u*(n-t)+2*u*i*(e-n)+i*i*(r-e))}function It(t,n,e,r,i){var u=arguments.length>5&&void 0!==arguments[5]&&arguments[5],o=At(t,n,e,r,i);return o||(o={x:Mt(t.x,n.x,e.x,r.x,i),y:Mt(t.y,n.y,e.y,r.y,i)}),u&&(o.a=Rt(t,n,e,r,i)),o}function Rt(t,n,e,r,i){return Math.atan2(Pt(t.y,n.y,e.y,r.y,i),Pt(t.x,n.x,e.x,r.x,i))}function Ft(t,n,e){var r=arguments.length>3&&void 0!==arguments[3]&&arguments[3];if(Tt(n)){if(qt(e))return jt(n,e.start,e,t,r)}else if(Tt(e)){if(Bt(n))return jt(n,n.end,e,t,r)}else{if(Bt(n))return qt(e)?It(n,n.end,e.start,e,t,r):jt(n,n.end,e,t,r);if(qt(e))return jt(n,e.start,e,t,r)}return xt(n,e,t,r)}function Nt(t,n,e){var r=Ft(t,n,e,!0);return r.a=function(t){return arguments.length>1&&void 0!==arguments[1]&&arguments[1]?t+Math.PI:t}(r.a)/m,r}function Tt(t){return!t.type||"corner"===t.type}function qt(t){return null!=t.start&&!Tt(t)}function Bt(t){return null!=t.end&&!Tt(t)}var Dt=new N;var Lt={f:ft,i:q},Ct={f:ft,i:D};function Vt(t,n,e){return t.map((function(t){return function(t,n,e){var r=t.v;if(!r||"g"!==r.t||r.s||!r.v||!r.r)return t;var i=e.getElementById(r.r),u=i&&i.querySelectorAll("stop")||[];return r.s=r.v.map((function(t,n){var e=u[n]&&u[n].getAttribute("offset");return{c:t,o:e=p(parseInt(e)/100)}})),delete r.v,t}(t,0,e)}))}var Gt={gt:"gradientTransform",c:{x:"cx",y:"cy"},rd:"r",f:{x:"x1",y:"y1"},to:{x:"x2",y:"y2"}};function zt(t,n,r,i,u,o,a,l){return Vt(t,0,l),n=function(t,n,e){for(var r,i,u,o=t.length-1,a={},l=0;l<=o;l++)(r=t[l]).e&&(r.e=n(r.e)),r.v&&"g"===(i=r.v).t&&i.r&&(u=e.getElementById(i.r))&&(a[i.r]={e:u,s:u.querySelectorAll("stop")});return a}(t,i,l),function(i){var u=r(i,t,Yt);if(!u)return"none";if("c"===u.t)return ht(u.v);if("g"===u.t){if(!n[u.r])return vt(u.r);var o=n[u.r];return function(t,n){for(var e=t.s,r=e.length;r<n.length;r++){var i=e[e.length-1].cloneNode();i.id=Qt(i.id),t.e.appendChild(i),e=t.s=t.e.querySelectorAll("stop")}for(var u=0,o=e.length,a=n.length-1;u<o;u++)e[u].setAttribute("stop-color",ht(n[Math.min(u,a)].c)),e[u].setAttribute("offset",n[Math.min(u,a)].o)}(o,u.s),Object.keys(Gt).forEach((function(t){if(void 0!==u[t])if("object"!==e(Gt[t])){var n,r="gt"===t?(n=u[t],Array.isArray(n)?"matrix("+n.join(" ")+")":""):u[t],i=Gt[t];o.e.setAttribute(i,r)}else Object.keys(Gt[t]).forEach((function(n){if(void 0!==u[t][n]){var e=u[t][n],r=Gt[t][n];o.e.setAttribute(r,e)}}))})),vt(u.r)}return"none"}}function Yt(t,e,r){if(0===t)return e;if(1===t)return r;if(e&&r){var i=e.t;if(i===r.t)switch(e.t){case"c":return{t:i,v:V(t,e.v,r.v)};case"g":if(e.r===r.r){var u={t:i,s:$t(t,e.s,r.s),r:e.r};return e.gt&&r.gt&&(u.gt=function(t,n,e){var r=n.length;if(r!==e.length)return T(t,n,e);for(var i=new Array(r),u=0;u<r;u++)i[u]=q(t,n[u],e[u]);return i}(t,e.gt,r.gt)),e.c?(u.c=L(t,e.c,r.c),u.rd=B(t,e.rd,r.rd)):e.f&&(u.f=L(t,e.f,r.f),u.to=L(t,e.to,r.to)),u}}if("c"===e.t&&"g"===r.t||"c"===r.t&&"g"===e.t){var o="c"===e.t?e:r,a="g"===e.t?n({},e):n({},r),l=a.s.map((function(t){return{c:o.v,o:t.o}}));return a.s="c"===e.t?$t(t,l,a.s):$t(t,a.s,l),a}}return T(t,e,r)}function $t(t,n,e){if(n.length===e.length)return n.map((function(n,r){return Ut(t,n,e[r])}));for(var r=Math.max(n.length,e.length),i=[],u=0;u<r;u++){var o=Ut(t,n[Math.min(u,n.length-1)],e[Math.min(u,e.length-1)]);i.push(o)}return i}function Ut(t,n,e){return{o:D(t,n.o,e.o||0),c:V(t,n.c,e.c||{})}}function Qt(t){return t.replace(/-fill-([0-9]+)$/,(function(t,n){return"-fill-"+(+n+1)}))}var Ht={fill:zt,"fill-opacity":Ct,stroke:zt,"stroke-opacity":Ct,"stroke-width":Lt,"stroke-dashoffset":{f:ft,i:q},"stroke-dasharray":{f:function(t){var n=arguments.length>1&&void 0!==arguments[1]?arguments[1]:" ";return t&&t.length>0&&(t=t.map((function(t){return p(t,4)}))),ct(t,n)},i:function(t,n,e){var r,i,u,o=n.length,a=e.length;if(o!==a)if(0===o)n=G(o=a,0);else if(0===a)a=o,e=G(o,0);else{var l=(u=(r=o)*(i=a)/function(t,n){for(var e;n;)e=n,n=t%n,t=e;return t||1}(r,i))<0?-u:u;n=z(n,Math.floor(l/o)),e=z(e,Math.floor(l/a)),o=a=l}for(var s=[],f=0;f<o;f++)s.push(p(B(t,n[f],e[f])));return s}},opacity:Ct,transform:function(t,n,r,i){if(!(t=function(t,n){if(!t||"object"!==e(t))return null;var r=!1;for(var i in t)t.hasOwnProperty(i)&&(t[i]&&t[i].length?(t[i].forEach((function(t){t.e&&(t.e=n(t.e))})),r=!0):delete t[i]);return r?t:null}(t,i)))return null;var u=function(e,i,u){var o=arguments.length>3&&void 0!==arguments[3]?arguments[3]:null;return t[e]?r(i,t[e],u):n&&n[e]?n[e]:o};return n&&n.a&&t.o?function(n){var e=r(n,t.o,Nt);return Dt.recomposeSelf(e,u("r",n,q,0)+e.a,u("k",n,L),u("s",n,L),u("t",n,L)).toString()}:function(t){return Dt.recomposeSelf(u("o",t,Ft,null),u("r",t,q,0),u("k",t,L),u("s",t,L),u("t",t,L)).toString()}},r:Lt,"#size":gt,"#radius":yt,_:function(t,n){if(Array.isArray(t))for(var e=0;e<t.length;e++)this[t[e]]=n;else this[t]=n}},Jt=function(t){!function(t,n){if("function"!=typeof n&&null!==n)throw new TypeError("Super expression must either be null or a function");t.prototype=Object.create(n&&n.prototype,{constructor:{value:t,writable:!0,configurable:!0}}),n&&l(t,n)}(o,t);var n,e,i=(n=o,e=s(),function(){var t,r=a(n);if(e){var i=a(this).constructor;t=Reflect.construct(r,arguments,i)}else t=r.apply(this,arguments);return c(this,t)});function o(){return r(this,o),i.apply(this,arguments)}return u(o,null,[{key:"build",value:function(t){var n=h(a(o),"build",this).call(this,t,Ht);if(!n)return null;n.el,n.options,function(t,n,e){t.play()}(n.player)}}]),o}(st);return Jt.init(),Jt}));
(function(s,i,o,w,d,a,b){w[o]=w[o]||{};w[o][s]=w[o][s]||[];w[o][s].push(i);})('5c7f360c',{"root":"logo-loader","version":"2022-05-04","animations":[{"elements":{"logo-loader-s-g1":{"transform":{"data":{"o":{"x":50.039957,"y":63.740452,"type":"corner"},"t":{"x":-50.039957,"y":-65.740452}},"keys":{"r":[{"t":0,"v":360},{"t":3000,"v":720}]}}}},"s":"MVDA1ZGRjODNjNWQ2ZDCNjMmQ1Y2FkMGNmODMG5Yjk0OTE5MTkxOGQ4QM2M1Y2FRUWQzYzZjNMGQ1Y2FTZDBjZjgzOWII5MjhkODNjYWQ1YzZPkM2MyZDVjYWQwY2ZkPNDgzOWI5MThkODNjNF2NhY2RjZDgzOWI5MjAhkODNjMmNkZDVjNmQTzY2ZjMmQ1YzY4MzliOYzdjMmNkZDRjNjhkOADNkNGQxYzZjNmM1ODBM5Yks5MjhkODNjN2QTxRmQ0ODNCOWI5MjkxLSzkxZGU/"}],"options":"MSDAxMDk1M2M4ZDhlN2HI4Y0E4ZTNjNTQzYzgC2ODk3Yk83ZTNjOTc/N"},'__SVGATOR_PLAYER__',window,document)
]]></script>
</svg>
