<svg width="200" height="201" viewBox="0 0 200 201" fill="none" xmlns="http://www.w3.org/2000/svg">
<circle cx="100" cy="100.5" r="100" fill="#003399"/>
<path d="M166 148.225C166 147.665 165.8 147.106 165.4 146.733L149.8 134.051C149 133.306 147.8 133.492 147 134.238C146.2 134.984 146.4 136.103 147.2 136.849L158.8 146.173L53.6 146.733V58.3358L65.8 69.7118C66.6 70.4578 67.8 70.4578 68.6 69.7118C69.4 68.9659 69.4 67.8469 68.6 67.101L53 52.5546C52.6 52.1816 52.2 51.9951 51.6 51.9951C51.2 51.9951 50.6 52.1816 50.2 52.5546L34.6 67.101C33.8 67.8469 33.8 68.9659 34.6 69.7118C35.4 70.4578 36.6 70.4578 37.4 69.7118L49.6 58.3358V148.971C49.6 149.344 49.6 149.157 50 149.717L50.2 149.903C50.6 150.276 51 150.463 51.6 150.463L158.6 149.903L147.2 159.228C146.4 159.974 146.2 161.093 147 161.839C147.8 162.585 149 162.771 149.8 162.025L165.4 149.344C165.6 149.157 166 148.784 166 148.225Z" fill="#FCFCFC"/>
<path d="M63 113.91V141.884C63 143.003 63.8 143.749 65 143.749H76C77.2 143.749 78 143.003 78 141.884V113.91C78 112.791 77.2 112.045 76 112.045H65.2C64 112.045 63 112.791 63 113.91ZM67 115.775H74V140.019H67.2V115.775H67ZM85.4 99.5504C84.2 99.5504 83.4 100.296 83.4 101.415V141.884C83.4 143.003 84.2 143.749 85.4 143.749H96.2C97.4 143.749 98.2 143.003 98.2 141.884V101.415C98.2 100.296 97.4 99.5504 96.2 99.5504H85.4ZM94.4 140.019H87.6V103.28H94.4V140.019ZM105.8 86.1229C104.6 86.1229 103.8 86.8689 103.8 87.9879V141.884C103.8 143.003 104.6 143.749 105.8 143.749H116.6C117.8 143.749 118.6 143.003 118.6 141.884V87.9879C118.6 86.8689 117.8 86.1229 116.6 86.1229H105.8ZM114.6 140.019H107.8V89.8528H114.6V140.019ZM126 72.1361C124.8 72.1361 124 72.882 124 74.001V141.884C124 143.003 124.8 143.749 126 143.749H136.8C138 143.749 138.8 143.003 138.8 141.884V74.001C138.8 72.882 138 72.1361 136.8 72.1361H126ZM135 140.019H128V75.8659H134.8V140.019H135ZM79.8 60.9466L111.4 64.1169V65.7953C111.4 66.9143 112.2 67.6603 113.4 67.6603H121.2C122.4 67.6603 123.2 66.9143 123.2 65.7953V65.2359L140.6 67.2873V68.4062C140.6 69.5252 141.4 70.2711 142.6 70.2711H152.4C153.6 70.2711 154.4 69.5252 154.4 68.4062V41.3649C154.4 40.246 153.6 39.5 152.4 39.5H142.6C141.4 39.5 140.6 40.246 140.6 41.3649V42.4839L123.2 44.5353V44.1623C123.2 43.0433 122.4 42.2974 121.2 42.2974H113.4C112.2 42.2974 111.4 43.0433 111.4 44.1623V45.8407L79.8 49.0111C78.8 49.1976 78 49.9435 78 50.876V59.0816C78 60.0141 78.8 60.7601 79.8 60.9466ZM144.4 43.2298H150.2V66.7278H144.4V43.2298ZM140.4 46.2137V63.7439L123.2 61.6925V48.2651L140.4 46.2137ZM115.4 46.0272H119.2V64.1169H115.4V46.0272ZM111.4 60.3871L90.8 58.3357V51.622L111.4 49.5706V60.3871ZM82 52.5544L86.8 51.9949V57.7762L82 57.4032V52.5544Z" fill="#FCFCFC"/>
</svg>
